<?xml version="1.0" encoding="utf-8"?>
<!-- Generator: Adobe Illustrator 16.2.1, SVG Export Plug-In . SVG Version: 6.00 Build 0)  -->
<!DOCTYPE svg PUBLIC "-//W3C//DTD SVG 1.1//EN" "http://www.w3.org/Graphics/SVG/1.1/DTD/svg11.dtd">
<svg version="1.1" id="Layer_1" xmlns="http://www.w3.org/2000/svg" xmlns:xlink="http://www.w3.org/1999/xlink" x="0px" y="0px"
	 width="817.5px" height="609.5px" viewBox="0 0 817.5 609.5" enable-background="new 0 0 817.5 609.5" xml:space="preserve">
<g>
	<g>
		<path fill="#231F20" d="M166.462,238.957l-1.973,5.471l59.068,9.203c7.154-2.587,14.408-5.731,21.137-9.527L166.462,238.957z"/>
		<path fill="#231F20" d="M162.04,251.221l41.104,8.482l-0.02,0.088c5.475-1.361,11.48-3.066,17.633-5.176l-56.661-8.828
			l0.077-0.491L162.04,251.221z"/>
	</g>
	<g>
		<path fill="#231F20" d="M60.648,259.791l-0.017-0.088l41.106-8.482l-2.139-5.929l0.078,0.495l-56.661,8.828
			C49.165,256.725,55.177,258.43,60.648,259.791z"/>
		<path fill="#231F20" d="M19.082,244.104c6.729,3.796,13.981,6.94,21.137,9.527l59.068-9.203l-1.973-5.471L19.082,244.104z"/>
	</g>
	<g>
		<path fill="#231F20" d="M120.269,236.844l-5.002,8.691c-2.774,4.818,2.897,5.489,5.367,1.221l3.782-6.587
			C122.586,239.59,121.092,238.43,120.269,236.844z"/>
		<path fill="#231F20" d="M123.257,231.447c-1.891,3.537-0.487,6.188,2.196,6.953l3.08-5.338
			C130.881,228.978,126.124,226.141,123.257,231.447z"/>
		<path fill="#231F20" d="M160.488,229.857c-4.55-11.338-15.637-19.346-28.599-19.346c-12.963,0-24.05,8.008-28.6,19.346
			L0.695,230.24c4.577,4.811,10.142,8.983,16.207,12.6l81.374-5.353l3.229,8.95c0.343,2.053,0.889,4.037,1.616,5.932l-39.474,8.145
			c12.558,2.948,21.6,4,21.6,4c2.566-0.998,11.031-4.078,20.187-7.387c5.382,8.991,15.214,15.012,26.455,15.012
			c11.24,0,21.073-6.021,26.455-15.012c9.155,3.309,17.621,6.389,20.187,7.387c0,0,9.042-1.052,21.599-4l-39.474-8.145
			c0.728-1.895,1.274-3.878,1.616-5.931l3.229-8.951l81.374,5.353c6.064-3.616,11.63-7.789,16.207-12.6L160.488,229.857z
			 M141.008,250h-0.183c-2.898,0-3.477-2.324-3.477-2.324l1.8-0.734c0.579,1.189,1.769,0.974,2.287,0.06l4.787-8.265
			c0.824-1.434-1.402-3.125-4.939,1.692L131.798,257h-3.202l4.703-8.219c-1.398,1.066-2.794,1.726-4.094,1.726
			c-2.562,0-3.508-2.181-2.165-4.529l3.434-5.956c-1.07,0.374-2.139,0.563-3.162,0.577l-3.385,5.913
			c-5.275,9.149-15.948,6.046-10.856-2.769l5.062-8.744h1.556c-0.183-1,0.121-2.997,1.097-4.673
			c4.408-7.691,13.721-3.72,10.518,3.106l0.128-0.433h2.865l2.99-5h3.17l-2.988,5h2.623l-0.916,2h-2.591l-6.8,11.823
			c-0.732,1.252-0.335,1.72,0.366,1.72c1.402,0,3.629-2.114,5.916-4.767l0.213-0.248c0.004,0,0.007,0.04,0.011,0.042l4.96-8.57
			h3.172l-0.642,1.06c3.232-2.896,8.02-1.239,5.062,3.792l-3.506,5.998c-0.397,0.671-0.793,1.551-1.312,2.375
			c1.92-0.671,4.026-2.382,5.794-4.456l0.213-0.245c0.458,0.121,1.007,0.371,1.189,0.859C148.632,247.403,145.613,250,141.008,250z"
			/>
		<path fill="#231F20" d="M133.414,235h-2.827l-2.054,3.53c1.202-0.224,2.485-0.723,3.744-1.579L133.414,235z"/>
	</g>
</g>
<g>
	<path fill="#CCC8BE" d="M95.602,77.311c0.737-7.704,2.566-15.095,5.333-22.013c21.861,9.545,47.562,14.584,74.618,14.584
		c27.02,0,52.688-5.025,74.531-14.546c2.215,5.548,3.816,11.403,4.748,17.475h4.65c-5.937-41.038-41.324-72.674-83.98-72.674
		c-44.201,0-80.6,33.972-84.502,77.174H95.602z M249.449,53.788c-7.432,3.24-15.307,5.963-23.538,8.131
		c-1.104-9.063-2.824-17.937-5.103-26.423c2.332-1.129,4.61-2.339,6.822-3.651c1.699-1.008,3.36-2.078,4.973-3.19
		C239.697,35.842,245.452,44.354,249.449,53.788z M231.393,27.455c-1.496,1.025-3.035,2.017-4.608,2.951
		c-2.083,1.235-4.229,2.38-6.423,3.45c-1.891-6.783-4.139-13.305-6.717-19.461C220.156,17.926,226.123,22.334,231.393,27.455z
		 M176.607,4.752c10,0.148,20.151,2.249,29.183,5.95c-8.583,6.47-19.183,9.977-29.183,10.208V4.752z M176.607,22.584
		c11-0.239,21.936-4.071,30.977-11.135c0.85,0.373,1.695,0.756,2.529,1.157c3.096,6.982,5.75,14.485,7.919,22.343
		c-12.523,5.691-27.425,8.723-41.425,8.869V22.584L176.607,22.584z M176.607,45.492c14-0.146,29.186-3.193,41.863-8.909
		c2.215,8.336,3.868,17.049,4.94,25.948c-14.716,3.65-30.81,5.582-46.81,5.666V45.492H176.607z M173.608,68.193
		c-17-0.105-31.815-2.041-46.476-5.688c1.073-8.904,2.886-17.623,5.105-25.963c12.622,5.707,26.371,8.765,41.371,8.945V68.193z
		 M173.608,4.755v16.149c-11-0.286-20.425-3.798-28.942-10.23C153.625,7.011,162.608,4.923,173.608,4.755z M143.11,11.42
		c8.975,7.024,18.498,10.863,30.498,11.157v21.237c-15-0.182-28.466-3.224-40.933-8.905c2.165-7.844,4.955-15.332,8.044-22.303
		C141.576,12.195,142.236,11.802,143.11,11.42z M137.357,14.395c-2.574,6.144-4.817,12.65-6.704,19.418
		c-2.172-1.063-4.298-2.2-6.362-3.426c-1.586-0.942-3.134-1.939-4.64-2.974C124.912,22.31,130.864,17.916,137.357,14.395z
		 M118.441,28.609c1.618,1.12,3.284,2.2,4.995,3.216c2.193,1.303,4.456,2.505,6.769,3.627c-2.282,8.492-4.004,17.373-5.111,26.44
		c-8.228-2.17-16.098-4.898-23.524-8.143C105.574,44.312,111.337,35.797,118.441,28.609z"/>
	<path fill="#CCC8BE" d="M250.085,114.664c-21.854-9.535-47.542-14.571-74.584-14.571c-27.043,0-52.732,5.036-74.585,14.573
		c-0.906-2.271-1.71-4.594-2.41-6.961H93.74c9.955,35.805,42.826,62.166,81.759,62.166c38.935,0,71.806-26.361,81.761-62.166h-4.765
		C251.796,110.072,250.992,112.395,250.085,114.664z M101.55,116.215c7.207-3.146,14.833-5.801,22.797-7.938
		c0.933,9.051,2.52,18.055,4.709,26.779c-1.919,0.963-3.801,1.986-5.636,3.076c-1.717,1.018-3.395,2.1-5.02,3.225
		C111.304,134.166,105.547,125.65,101.55,116.215z M119.611,142.557c1.512-1.039,3.068-2.041,4.662-2.986
		c1.7-1.008,3.441-1.955,5.215-2.854c1.572,6.029,3.426,11.92,5.552,17.586C129.428,151.014,124.25,147.062,119.611,142.557z
		 M173.608,165.252c-11-0.168-20.027-2.264-29.001-5.941c8.532-6.447,18.001-9.963,29.001-10.24V165.252z M173.608,147.398
		c-12,0.285-21.498,4.127-30.488,11.164c-1.675-0.734-3.318-1.521-4.931-2.363c-2.608-6.582-4.841-13.492-6.676-20.602
		c12.758-6.021,26.094-9.256,42.094-9.436L173.608,147.398L173.608,147.398z M173.608,124.488c-16,0.18-29.607,3.42-42.517,9.457
		c-2.125-8.57-3.806-17.412-4.703-26.301c14.872-3.764,30.22-5.758,47.22-5.861V124.488z M176.607,101.781
		c16,0.09,32.638,2.086,47.562,5.863c-0.897,8.887-2.455,17.729-4.582,26.301c-12.957-6.061-27.979-9.303-42.979-9.459
		L176.607,101.781L176.607,101.781z M176.607,165.256v-16.189c10,0.242,20.597,3.762,29.175,10.242
		C196.756,163.008,186.607,165.107,176.607,165.256z M207.568,158.562c-9.036-7.076-19.961-10.92-30.961-11.168v-21.236
		c15,0.158,29.768,3.395,42.574,9.438c-1.834,7.109-4.055,14.021-6.66,20.602C210.909,157.041,209.243,157.828,207.568,158.562z
		 M215.961,154.303c2.126-5.668,3.979-11.559,5.553-17.588c1.784,0.906,3.538,1.859,5.25,2.875c1.582,0.941,3.127,1.936,4.627,2.965
		C226.751,147.061,221.574,151.012,215.961,154.303z M232.598,141.357c-1.611-1.115-3.271-2.191-4.979-3.205
		c-1.848-1.098-3.74-2.129-5.674-3.098c2.188-8.725,3.775-17.729,4.709-26.779c7.964,2.139,15.592,4.791,22.799,7.938
		C245.454,125.65,239.697,134.168,232.598,141.357z"/>
</g>
<g>
	<g>
		<path fill="#CCC8BE" d="M221.75,79.963l-2.641,7.317l79.016,12.309c9.572-3.461,19.275-7.666,28.275-12.745L221.75,79.963z"/>
		<path fill="#CCC8BE" d="M215.833,96.367l54.99,11.348l-0.025,0.117c7.318-1.82,15.363-4.102,23.589-6.924l-75.798-11.811
			l0.104-0.658L215.833,96.367z"/>
	</g>
	<g>
		<path fill="#CCC8BE" d="M80.201,107.832l-0.021-0.117l54.988-11.348l-2.864-7.932l0.105,0.662l-75.796,11.811
			C64.839,103.73,72.881,106.012,80.201,107.832z"/>
		<path fill="#CCC8BE" d="M24.596,86.844c9.002,5.079,18.703,9.284,28.274,12.745l79.018-12.309l-2.639-7.317L24.596,86.844z"/>
	</g>
	<path fill="#CCC8BE" d="M213.758,67.787c-6.085-15.165-20.918-25.879-38.257-25.879c-17.341,0-32.171,10.714-38.258,25.879
		L0,68.303c6.123,6.434,13.568,12.016,21.681,16.854l108.854-7.16l4.317,11.975c0.46,2.746,1.192,5.399,2.166,7.932L84.212,108.8
		c16.798,3.945,28.893,5.35,28.893,5.35c3.434-1.336,14.758-5.455,27.006-9.881c7.2,12.029,20.352,20.082,35.39,20.082
		c15.036,0,28.188-8.053,35.39-20.082c12.246,4.426,23.572,8.545,27.004,9.881c0,0,12.099-1.404,28.896-5.35l-52.807-10.897
		c0.977-2.532,1.703-5.186,2.16-7.932l4.322-11.975l108.854,7.16c8.111-4.837,15.56-10.419,21.683-16.854L213.758,67.787z"/>
	<path fill="#24282C" d="M199.771,86.069l-0.283,0.327c-2.365,2.774-5.182,5.061-7.752,5.957c0.695-1.104,1.225-2.286,1.756-3.183
		l4.691-8.036c3.95-6.732-2.449-8.975-6.772-5.102l0.856-1.465h-4.244l-6.64,11.509c-0.003,0-0.007-0.008-0.011-0.008l-0.288,0.327
		c-3.062,3.551-6.037,6.364-7.913,6.364c-0.939,0-1.467-0.653-0.49-2.325l9.099-15.867h3.465l1.229-2.041h-3.511l3.997-6.938h-4.242
		l-3.996,6.938h-3.833l-0.175,0.287c4.287-9.135-8.171-14.736-14.068-4.449c-1.305,2.244-1.712,4.324-1.467,6.203h-2.08
		l-6.772,11.748c-6.813,11.787,7.466,15.989,14.522,3.751l4.527-7.916c1.371-0.016,2.799-0.274,4.231-0.774l-4.594,7.955
		c-1.795,3.143-0.529,6.038,2.896,6.038c1.741,0,3.606-0.921,5.478-2.346l-6.292,10.912h4.283l12.688-22.067
		c4.729-6.445,7.711-4.078,6.604-2.164l-6.401,11.098c-0.694,1.225-2.285,1.592-3.061,0l-2.409,1.143c0,0,0.774,3.425,4.652,3.425
		h0.243c6.158-0.122,10.199-3.792,13.664-7.83C201.122,86.884,200.387,86.234,199.771,86.069z M160.445,90.394
		c-3.304,5.711-10.892,4.813-7.181-1.631l6.692-11.627c1.103,2.119,3.099,3.67,5.548,4.445L160.445,90.394z M166.891,79.215
		c-3.591-1.019-5.466-4.567-2.936-9.301c3.833-7.096,10.198-3.304,7.056,2.16L166.891,79.215z M171.011,79.341l2.748-4.773h3.782
		l-1.523,2.632C174.336,78.347,172.619,79.042,171.011,79.341z"/>
</g>
<g>
	<path fill="#CCC8BE" d="M64.896,344c-0.166,1-0.354,1.109-0.568,1.643c-3.031-1.314-6.381-2.265-9.919-2.818
		c-0.077,0.127-0.149,0.26-0.232,0.383c1.381,0.213,2.745,0.465,4.043,0.793c-0.211,2.096-0.394,4.179-0.895,6.197
		c-3.054-1.434-6.944-2.19-9.944-2.229v-0.843c0,0.002-0.298,0.012-0.375,0.012c-0.161,0-0.625-0.016-0.625-0.021v0.854
		c-4,0.043-7.016,0.812-10.058,2.229c-0.501-2.021-0.916-4.104-1.127-6.196c1.372-0.349,2.76-0.61,4.183-0.828
		c-0.077-0.116-0.149-0.237-0.221-0.354c-3.56,0.562-6.933,1.51-9.98,2.84c-0.213-0.535-0.405-0.646-0.57-1.646h-1.123
		c2.345,8,10.092,14.649,19.268,14.649c9.176,0,16.919-6.65,19.265-14.65L64.896,344L64.896,344z M29.323,346.012
		c1.698-0.732,3.496-1.359,5.373-1.869c0.22,2.141,0.593,4.262,1.109,6.312c-0.452,0.229-0.896,0.468-1.328,0.727
		c-0.404,0.238-0.8,0.493-1.183,0.766C31.621,350.243,30.265,348.236,29.323,346.012z M33.579,352.221
		c0.357-0.244,0.724-0.479,1.099-0.703c0.401-0.23,0.811-0.461,1.229-0.672c0.372,1.42,0.807,2.812,1.31,4.146
		C35.892,354.214,34.672,353.282,33.579,352.221z M46.38,357.568c-3-0.039-4.719-0.532-6.834-1.399
		c2.011-1.521,3.834-2.349,6.834-2.413V357.568z M46.38,353.361c-3,0.062-5.104,0.973-7.223,2.632
		c-0.395-0.175-0.801-0.359-1.181-0.562c-0.615-1.552-1.112-3.18-1.545-4.854c3.007-1.42,5.949-2.188,9.949-2.229V353.361z
		 M47.38,357.568v-3.813c2,0.062,4.854,0.888,6.876,2.414C52.128,357.04,49.38,357.535,47.38,357.568z M54.492,355.993
		c-2.13-1.668-5.112-2.574-7.112-2.634v-5.004c3,0.029,6.83,0.801,9.849,2.226c-0.433,1.675-0.955,3.303-1.569,4.854
		C55.279,355.634,54.886,355.818,54.492,355.993z M56.285,354.989c0.501-1.337,0.938-2.729,1.308-4.146
		c0.42,0.214,0.834,0.438,1.238,0.677c0.373,0.229,0.737,0.457,1.09,0.699C58.828,353.282,57.608,354.214,56.285,354.989z
		 M60.206,351.938c-0.38-0.264-0.771-0.518-1.175-0.756c-0.434-0.259-0.881-0.502-1.335-0.729c0.516-2.062,0.889-4.178,1.11-6.312
		c1.876,0.504,3.674,1.129,5.372,1.87C63.236,348.236,61.879,350.244,60.206,351.938z"/>
	<path fill="#CCC8BE" d="M46.75,318.844c-10.417,0-18.995,8.156-19.915,18.156h1.085c0.173-2,0.604-3.635,1.256-5.266
		c2.923,1.271,6.145,2.152,9.544,2.729c0.056-0.119,0.11-0.259,0.171-0.375c-1.194-0.197-2.374-0.434-3.541-0.724
		c0.253-2.104,0.68-4.158,1.203-6.123c2.906,1.312,6.068,2.021,9.509,2.096c0.238-0.021,0.476-0.038,0.719-0.038
		c0.216,0,0.427,0.021,0.639,0.032c3.185-0.086,6.59-0.794,9.455-2.086c0.521,1.965,0.912,4.019,1.165,6.114
		c-1.096,0.271-2.232,0.482-3.383,0.68c0.065,0.123,0.123,0.252,0.182,0.379c3.377-0.568,6.579-1.377,9.485-2.645
		c0.522,1.307,0.9,2.226,1.119,4.226h1.096C65.143,326,56.802,318.844,46.75,318.844z M34.871,333.211
		c-1.939-0.512-3.794-1.154-5.544-1.919c0.943-2.224,2.302-4.231,3.976-5.925c0.381,0.264,0.774,0.52,1.177,0.758
		c0.517,0.309,1.05,0.59,1.595,0.855C35.538,328.98,35.132,331.074,34.871,333.211z M36.181,326.594
		c-0.512-0.25-1.013-0.52-1.499-0.807c-0.374-0.223-0.738-0.459-1.094-0.701c1.24-1.203,2.643-2.238,4.173-3.068
		C37.154,323.465,36.626,324.998,36.181,326.594z M46.38,328.951c-4-0.043-6.746-0.76-9.685-2.104
		c0.511-1.848,1.149-3.605,1.877-5.256c0.201-0.097,0.386-0.188,0.592-0.271c2.114,1.647,4.215,2.56,7.215,2.629L46.38,328.951
		L46.38,328.951z M46.38,323.553c-3-0.062-4.813-0.896-6.82-2.412c2.111-0.855,3.82-1.354,6.82-1.395V323.553z M47.38,319.745
		c2,0.034,4.75,0.53,6.877,1.401c-2.023,1.521-4.877,2.352-6.877,2.398V319.745z M47.38,328.951v-5.004
		c2-0.062,4.985-0.961,7.115-2.624c0.2,0.088,0.308,0.179,0.504,0.271c0.729,1.646,1.494,3.414,2.003,5.271
		C54.053,328.203,50.38,328.918,47.38,328.951z M55.739,322.018c1.534,0.832,2.94,1.871,4.183,3.078
		c-0.352,0.241-0.715,0.479-1.087,0.695c-0.491,0.291-0.997,0.561-1.514,0.812C56.876,325.005,56.347,323.469,55.739,322.018z
		 M58.63,333.217c-0.26-2.135-0.666-4.227-1.203-6.227c0.55-0.271,1.087-0.551,1.609-0.861c0.4-0.236,0.792-0.488,1.17-0.752
		c1.672,1.695,3.028,3.701,3.971,5.924C62.425,332.064,60.57,332.707,58.63,333.217z"/>
</g>
<g>
	<g>
		<path fill="#CCC8BE" d="M57.649,337.471l-0.622,1.729l18.621,2.896c2.255-0.812,4.543-1.807,6.663-3.004L57.649,337.471z"/>
		<path fill="#CCC8BE" d="M56.255,341.336l12.958,2.674l-0.006,0.027c1.725-0.43,3.621-0.967,5.56-1.631l-17.863-2.785l0.024-0.154
			L56.255,341.336z"/>
	</g>
	<g>
		<path fill="#CCC8BE" d="M24.292,344.037l-0.005-0.027l12.958-2.674l-0.674-1.87l0.024,0.155l-17.862,2.785
			C20.671,343.07,22.566,343.607,24.292,344.037z"/>
		<path fill="#CCC8BE" d="M11.187,339.092c2.122,1.197,4.408,2.188,6.664,3.004l18.621-2.896l-0.622-1.729L11.187,339.092z"/>
	</g>
	<path fill="#CCC8BE" d="M55.766,334.6c-1.433-3.566-4.93-6.1-9.016-6.1c-4.087,0-7.582,2.525-9.016,6.1l-32.343,0.123
		c1.442,1.521,3.198,2.83,5.109,3.979l25.653-1.688l1.018,2.822c0.109,0.646,0.281,1.271,0.51,1.869l-12.444,2.562
		c3.959,0.937,6.809,1.268,6.809,1.268c0.81-0.315,3.478-1.286,6.365-2.329c1.696,2.835,4.796,4.729,8.34,4.729
		s6.643-1.896,8.34-4.729c2.886,1.043,5.556,2.014,6.364,2.329c0,0,2.85-0.331,6.81-1.268L55.82,341.7
		c0.23-0.604,0.402-1.229,0.511-1.869l1.018-2.822L83,338.693c1.911-1.146,3.666-2.455,5.109-3.979L55.766,334.6z"/>
	<path fill="#24282C" d="M54.797,339.076l-0.091,0.104c-0.761,0.896-1.667,1.629-2.494,1.918c0.223-0.354,0.394-0.729,0.564-1.021
		l1.51-2.585c1.271-2.166-0.789-2.896-2.18-1.646l0.276-0.472h-1.366l-2.134,3.703c-0.001,0-0.002-0.003-0.004-0.003l-0.093,0.104
		c-0.984,1.146-1.942,2.047-2.545,2.047c-0.303,0-0.473-0.209-0.159-0.742l2.929-5.104h1.115l0.394-0.657H49.39l1.286-2.229h-1.365
		l-1.287,2.229h-1.232l-0.058,0.099c1.379-2.938-2.629-4.74-4.527-1.438c-0.42,0.726-0.55,1.394-0.472,1.996h-0.669l-2.18,3.779
		c-2.192,3.793,2.403,5.146,4.673,1.207l1.458-2.547c0.44-0.012,0.901-0.096,1.361-0.248l-1.478,2.56
		c-0.578,1.011-0.169,1.942,0.932,1.942c0.559,0,1.16-0.305,1.761-0.764l-2.024,3.521h1.378l4.083-7.104
		c1.522-2.066,2.481-1.311,2.126-0.689l-2.06,3.563c-0.224,0.396-0.736,0.521-0.985,0l-0.775,0.368c0,0,0.249,1.104,1.496,1.104
		h0.079c1.982-0.039,3.282-1.228,4.397-2.521C55.231,339.341,54.994,339.13,54.797,339.076z M42.143,340.469
		c-1.064,1.838-3.506,1.549-2.312-0.521l2.153-3.743c0.355,0.684,0.997,1.182,1.786,1.434L42.143,340.469z M44.216,336.871
		c-1.156-0.328-1.759-1.471-0.944-2.992c1.233-2.283,3.281-1.062,2.27,0.696L44.216,336.871z M45.542,336.911l0.884-1.535h1.217
		l-0.491,0.847C46.611,336.592,46.059,336.814,45.542,336.911z"/>
</g>
<rect x="6.575" y="389.753" fill="none" width="126.189" height="157.737"/>
<text transform="matrix(1 0 0 1 6.5747 411.9951)" display="none" fill="#CFCBC2" enable-background="new    " font-family="'MyriadPro-Regular'" font-size="29">EX</text>
<text transform="matrix(1 0 0 1 34.2109 411.9951)" display="none" fill="#CFCBC2" enable-background="new    " font-family="'MyriadPro-Regular'" font-size="29">P</text>
<text transform="matrix(1 0 0 1 46.8257 411.9951)" display="none" fill="#CFCBC2" enable-background="new    " font-family="'MyriadPro-Regular'" font-size="29">L</text>
<text transform="matrix(1 0 0 1 59.7305 411.9951)" display="none" fill="#CFCBC2" enable-background="new    " font-family="'MyriadPro-Regular'" font-size="29">O</text>
<text transform="matrix(1 0 0 1 72.8677 411.9951)" display="none" fill="#CFCBC2" enable-background="new    " font-family="'MyriadPro-Regular'" font-size="29">R</text>
<text transform="matrix(1 0 0 1 86.4688 411.9951)" display="none" fill="#CFCBC2" enable-background="new    " font-family="'MyriadPro-Regular'" font-size="29">E</text>
<text transform="matrix(1 0 0 1 6.5747 469.9951)" display="none" fill="#CFCBC2" enable-background="new    " font-family="'MyriadPro-Regular'" font-size="29">LOGIN</text>
<text transform="matrix(1 0 0 1 6.5747 527.9951)" display="none" fill="#CFCBC2" enable-background="new    " font-family="'MyriadPro-Regular'" font-size="29">MAGAZINE</text>
<g>
	<path fill="#CFCBC2" d="M17.16,408.921c0.483,0,0.894,0.17,1.232,0.508s0.508,0.749,0.508,1.232c0,0.479-0.169,0.895-0.508,1.229
		c-0.339,0.345-0.75,0.515-1.232,0.515h-7.105c-0.483,0-0.895-0.177-1.232-0.515c-0.338-0.338-0.507-0.749-0.507-1.229v-19.198
		c0-0.479,0.169-0.895,0.507-1.229c0.338-0.346,0.749-0.516,1.232-0.516h7.105c0.483,0,0.894,0.17,1.232,0.516
		c0.338,0.338,0.508,0.748,0.508,1.229c0,0.503-0.169,0.919-0.508,1.247c-0.338,0.329-0.75,0.493-1.232,0.493h-5.365v7.308h3.712
		c0.483,0,0.894,0.17,1.232,0.508c0.338,0.346,0.507,0.749,0.507,1.232s-0.169,0.896-0.507,1.232
		c-0.338,0.339-0.75,0.508-1.232,0.508h-3.712v4.93H17.16z M17.16,410.951c0.193,0,0.29-0.104,0.29-0.29
		c0-0.193-0.097-0.29-0.29-0.29h-6.815v-7.83h5.162c0.193,0,0.29-0.097,0.29-0.29s-0.097-0.29-0.29-0.29h-5.162v-10.208h6.815
		c0.193,0,0.29-0.097,0.29-0.29s-0.097-0.29-0.29-0.29h-7.105c-0.193,0-0.29,0.097-0.29,0.29v19.198c0,0.188,0.097,0.29,0.29,0.29
		H17.16L17.16,410.951z"/>
	<path fill="#CFCBC2" d="M32.251,410.052c0.174,0.445,0.164,0.896-0.029,1.334c-0.193,0.445-0.512,0.754-0.957,0.936
		c-0.174,0.069-0.387,0.108-0.638,0.108c-0.348,0-0.667-0.102-0.957-0.305c-0.29-0.202-0.513-0.479-0.667-0.826l-2.146-5.626
		l-2.175,5.626c-0.135,0.354-0.353,0.624-0.652,0.826c-0.3,0.203-0.624,0.305-0.972,0.305c-0.232,0-0.435-0.039-0.609-0.108
		c-0.445-0.182-0.769-0.482-0.972-0.936c-0.203-0.438-0.217-0.889-0.043-1.334l3.016-7.83l0.551-1.392l-3.277-8.497
		c-0.174-0.444-0.165-0.885,0.029-1.319c0.193-0.436,0.512-0.732,0.957-0.914c0.444-0.174,0.889-0.164,1.334,0.029
		c0.444,0.193,0.754,0.514,0.928,0.957l1.885,4.9l1.885-4.9c0.174-0.443,0.479-0.764,0.914-0.957
		c0.435-0.193,0.875-0.203,1.319-0.029c0.444,0.182,0.769,0.479,0.972,0.914c0.203,0.438,0.217,0.875,0.043,1.319l-3.277,8.497
		l0.551,1.392L32.251,410.052z M30.743,410.951c0.193-0.077,0.251-0.203,0.174-0.377l-3.016-7.83l-0.725-1.914l3.451-9.021
		c0.058-0.146,0-0.271-0.174-0.348c-0.174-0.077-0.3-0.029-0.377,0.146l-3.219,8.402l-3.248-8.402
		c-0.078-0.182-0.203-0.229-0.377-0.146c-0.155,0.059-0.203,0.174-0.145,0.348l3.451,9.021l-0.725,1.914l-3.016,7.83
		c-0.078,0.188-0.02,0.312,0.174,0.377c0.019,0.02,0.048,0.021,0.087,0.021c0.116,0,0.213-0.062,0.29-0.194l2.987-7.81l0.522-1.334
		l0.493,1.334l3.016,7.81c0.058,0.135,0.145,0.194,0.261,0.194C30.685,410.979,30.723,410.971,30.743,410.951z"/>
	<path fill="#CFCBC2" d="M44.543,392.188c0.425,0.658,0.749,1.396,0.972,2.189c0.222,0.803,0.333,1.63,0.333,2.479
		c0,0.852-0.111,1.673-0.333,2.466c-0.223,0.793-0.546,1.521-0.972,2.203c-0.503,0.771-1.092,1.373-1.769,1.799
		c-0.677,0.425-1.382,0.638-2.117,0.638h-2.436v6.699c0,0.479-0.169,0.895-0.508,1.229c-0.339,0.345-0.749,0.515-1.232,0.515
		s-0.895-0.169-1.232-0.515c-0.338-0.338-0.507-0.749-0.507-1.229V391.52c0-0.32,0.077-0.615,0.232-0.884
		c0.154-0.262,0.357-0.469,0.609-0.624c0.29-0.174,0.599-0.261,0.928-0.261h4.147c0.734,0,1.44,0.208,2.117,0.623
		C43.451,390.791,44.041,391.396,44.543,392.188z M43.296,400.743c0.348-0.541,0.619-1.15,0.812-1.827s0.29-1.363,0.29-2.06
		c0-0.695-0.097-1.39-0.29-2.062s-0.464-1.285-0.812-1.827c-0.348-0.561-0.754-0.994-1.218-1.305
		c-0.464-0.312-0.938-0.464-1.421-0.464H36.51c-0.039,0-0.097,0.02-0.174,0.058c-0.097,0.039-0.145,0.126-0.145,0.268v19.142
		c0,0.193,0.097,0.29,0.29,0.29s0.29-0.097,0.29-0.29v-8.149h3.886c0.483,0,0.957-0.146,1.421-0.464
		C42.542,401.739,42.949,401.304,43.296,400.743z M40.658,391.782c0.386,0,0.769,0.13,1.146,0.392
		c0.377,0.262,0.72,0.623,1.029,1.088c0.329,0.502,0.575,1.067,0.74,1.695c0.164,0.629,0.247,1.262,0.247,1.899
		c0,0.639-0.083,1.267-0.247,1.886c-0.165,0.619-0.411,1.179-0.74,1.682c-0.31,0.483-0.652,0.855-1.029,1.116
		c-0.377,0.262-0.759,0.392-1.146,0.392h-3.886v-10.146L40.658,391.782L40.658,391.782z M41.615,399.641
		c0.232-0.387,0.416-0.813,0.551-1.305c0.135-0.484,0.203-0.977,0.203-1.479s-0.068-1-0.203-1.494
		c-0.135-0.492-0.319-0.938-0.551-1.318c-0.213-0.29-0.401-0.498-0.565-0.624c-0.165-0.125-0.295-0.188-0.392-0.188h-2.436v7.251
		h2.436c0.096,0,0.227-0.062,0.392-0.188C41.213,400.168,41.402,399.95,41.615,399.641z"/>
	<path fill="#CFCBC2" d="M57.507,408.95c0.502,0,0.918,0.169,1.247,0.507c0.329,0.339,0.493,0.75,0.493,1.232
		c0,0.479-0.165,0.895-0.493,1.229c-0.329,0.338-0.745,0.507-1.247,0.507h-7.569c-0.483,0-0.895-0.169-1.232-0.507
		c-0.339-0.339-0.508-0.749-0.508-1.229v-19.197c0-0.483,0.169-0.896,0.508-1.232c0.338-0.339,0.749-0.508,1.232-0.508
		s0.894,0.169,1.232,0.508c0.338,0.338,0.507,0.749,0.507,1.232v17.458H57.507z M57.507,410.979c0.193,0,0.29-0.096,0.29-0.282
		c0-0.192-0.097-0.29-0.29-0.29h-7.279v-18.907c0-0.193-0.097-0.29-0.29-0.29c-0.194,0-0.29,0.097-0.29,0.29v19.197
		c0,0.188,0.096,0.282,0.29,0.282H57.507L57.507,410.979z"/>
	<path fill="#CFCBC2" d="M70.934,406.659c0,0.115-0.005,0.333-0.015,0.646c-0.01,0.319-0.063,0.688-0.159,1.104
		c-0.097,0.416-0.251,0.855-0.464,1.334c-0.213,0.475-0.512,0.914-0.899,1.319c-0.329,0.36-0.817,0.726-1.464,1.065
		c-0.648,0.354-1.484,0.522-2.508,0.522c-1.025,0-1.852-0.177-2.479-0.522c-0.629-0.348-1.107-0.705-1.436-1.065
		c-0.387-0.433-0.682-0.884-0.885-1.362c-0.203-0.483-0.348-0.942-0.435-1.378c-0.087-0.438-0.13-0.821-0.13-1.16
		c0-0.338,0-0.574,0-0.71v-11.107c0-1.152,0.193-2.098,0.58-2.812c0.386-0.716,0.783-1.257,1.189-1.624
		c0.986-0.93,2.185-1.396,3.596-1.396c0.657,0,1.314,0.116,1.972,0.354c0.657,0.229,1.247,0.59,1.769,1.071
		c0.522,0.479,0.947,1.094,1.276,1.82c0.329,0.735,0.493,1.605,0.493,2.61L70.934,406.659L70.934,406.659z M68.353,410.081
		c0.309-0.329,0.541-0.682,0.696-1.059c0.154-0.385,0.265-0.729,0.333-1.062c0.067-0.328,0.101-0.613,0.101-0.854
		c0-0.241,0-0.39,0-0.427v-11.31c0-1.488-0.464-2.644-1.392-3.451c-0.348-0.31-0.754-0.546-1.218-0.71s-0.947-0.247-1.45-0.247
		s-0.981,0.083-1.436,0.247c-0.455,0.164-0.846,0.41-1.175,0.739c-0.87,0.793-1.305,1.924-1.305,3.393v11.165
		c0,0.062-0.005,0.214-0.015,0.464c-0.01,0.255,0.015,0.56,0.072,0.899c0.058,0.348,0.164,0.721,0.319,1.116
		c0.154,0.396,0.386,0.759,0.696,1.088c0.696,0.754,1.643,1.131,2.842,1.131C66.68,411.212,67.657,410.835,68.353,410.081z
		 M65.424,391.55c0.406,0,0.812,0.068,1.218,0.203c0.406,0.136,0.778,0.354,1.117,0.651c0.338,0.301,0.613,0.688,0.826,1.176
		c0.213,0.486,0.319,1.083,0.319,1.798v11.31v0.029c0.019,0.354-0.01,0.696-0.087,1.044c-0.058,0.312-0.155,0.646-0.29,0.986
		c-0.136,0.348-0.339,0.657-0.609,0.928c-0.58,0.638-1.411,0.957-2.494,0.957c-1.044,0-1.847-0.309-2.407-0.928
		c-0.271-0.29-0.474-0.619-0.609-0.986c-0.136-0.367-0.228-0.71-0.275-1.021c-0.049-0.319-0.063-0.7-0.043-1.146v-0.028v-11.171
		c0-0.65,0.096-1.228,0.29-1.711c0.193-0.479,0.445-0.879,0.754-1.188c0.309-0.312,0.667-0.537,1.073-0.688
		C64.612,391.622,65.018,391.55,65.424,391.55z M66.874,408.688c0.135-0.135,0.242-0.299,0.319-0.484
		c0.077-0.193,0.135-0.395,0.174-0.58c0.039-0.193,0.062-0.363,0.072-0.508c0.01-0.146,0.015-0.246,0.015-0.312v-0.058v-11.368
		c0-0.521-0.072-0.938-0.217-1.247c-0.145-0.309-0.319-0.551-0.522-0.726c-0.203-0.178-0.421-0.284-0.653-0.334
		c-0.232-0.047-0.445-0.07-0.638-0.07c-0.155,0-0.339,0.023-0.551,0.072c-0.213,0.049-0.416,0.146-0.609,0.305
		c-0.193,0.155-0.362,0.393-0.507,0.71c-0.145,0.319-0.218,0.74-0.218,1.263v11.251v0.062c0,0.097,0,0.229,0,0.405
		c0,0.175,0.019,0.354,0.058,0.552c0.039,0.188,0.097,0.392,0.174,0.594c0.077,0.203,0.184,0.373,0.319,0.508
		c0.058,0.062,0.183,0.15,0.377,0.275c0.193,0.126,0.512,0.188,0.957,0.188c0.502,0,0.855-0.062,1.058-0.202
		C66.685,408.844,66.815,408.747,66.874,408.688z"/>
	<path fill="#CFCBC2" d="M84.815,409.965c0.213,0.445,0.227,0.896,0.043,1.334c-0.184,0.445-0.498,0.771-0.942,0.957
		c-0.232,0.097-0.464,0.146-0.696,0.146c-0.329,0-0.638-0.1-0.928-0.275s-0.512-0.438-0.667-0.769l-3.219-7.365h-1.74v6.67
		c0,0.479-0.169,0.895-0.507,1.229c-0.338,0.346-0.75,0.515-1.232,0.515c-0.483,0-0.895-0.169-1.232-0.515
		c-0.339-0.338-0.508-0.747-0.508-1.229v-19.142c0-0.481,0.169-0.896,0.508-1.231c0.338-0.338,0.749-0.507,1.232-0.507h4.205
		c0.734,0,1.44,0.208,2.117,0.623c0.677,0.416,1.266,1.011,1.769,1.783c0.87,1.365,1.305,2.938,1.305,4.69
		c0,0.854-0.112,1.673-0.333,2.465c-0.223,0.793-0.546,1.527-0.972,2.204c-0.193,0.29-0.396,0.559-0.609,0.783
		c-0.213,0.232-0.426,0.445-0.638,0.638L84.815,409.965z M83.336,410.922c0.193-0.077,0.242-0.203,0.145-0.377l-3.567-8.148
		c0.696-0.271,1.324-0.812,1.885-1.617c0.328-0.541,0.589-1.149,0.783-1.826c0.194-0.685,0.29-1.363,0.29-2.062
		c0-0.689-0.097-1.382-0.29-2.059c-0.193-0.678-0.454-1.287-0.782-1.828c-0.368-0.561-0.783-0.996-1.247-1.305
		c-0.464-0.312-0.938-0.465-1.421-0.465h-4.205c-0.194,0-0.29,0.098-0.29,0.283v19.146c0,0.188,0.096,0.29,0.29,0.29
		c0.193,0,0.29-0.097,0.29-0.29v-8.12h3.915c0.096,0,0.164-0.01,0.203-0.029l3.625,8.271c0.058,0.107,0.145,0.174,0.261,0.174
		C83.279,410.951,83.317,410.941,83.336,410.922z M81.307,400.453c-0.31,0.479-0.652,0.854-1.029,1.116
		c-0.377,0.261-0.759,0.392-1.146,0.392h-3.915v-10.15h3.915c0.386,0,0.768,0.139,1.146,0.396c0.377,0.261,0.72,0.624,1.029,1.088
		c0.329,0.503,0.575,1.062,0.739,1.684c0.164,0.618,0.247,1.263,0.247,1.912c0,0.646-0.083,1.271-0.247,1.893
		C81.882,399.39,81.635,399.95,81.307,400.453z M79.132,400.511c0.096,0,0.227-0.062,0.391-0.188
		c0.164-0.125,0.353-0.343,0.566-0.652c0.251-0.387,0.439-0.821,0.565-1.305c0.125-0.483,0.188-0.979,0.188-1.479
		s-0.063-1-0.188-1.492c-0.126-0.486-0.314-0.934-0.565-1.312c-0.213-0.29-0.402-0.498-0.566-0.624
		c-0.165-0.125-0.295-0.188-0.391-0.188h-2.465v7.25h2.465V400.511z"/>
	<path fill="#CFCBC2" d="M95.951,408.921c0.483,0,0.894,0.17,1.232,0.508s0.508,0.749,0.508,1.232c0,0.479-0.169,0.895-0.508,1.229
		c-0.339,0.345-0.75,0.515-1.232,0.515h-7.105c-0.483,0-0.895-0.177-1.232-0.515c-0.338-0.338-0.507-0.749-0.507-1.229v-19.198
		c0-0.479,0.169-0.895,0.507-1.229c0.338-0.346,0.749-0.516,1.232-0.516h7.105c0.483,0,0.894,0.17,1.232,0.516
		c0.338,0.338,0.508,0.748,0.508,1.229c0,0.503-0.169,0.919-0.508,1.247c-0.338,0.329-0.75,0.493-1.232,0.493h-5.365v7.308h3.712
		c0.483,0,0.894,0.17,1.232,0.508c0.338,0.346,0.507,0.749,0.507,1.232s-0.169,0.896-0.507,1.232
		c-0.338,0.339-0.75,0.508-1.232,0.508h-3.712v4.93H95.951z M95.951,410.951c0.193,0,0.29-0.104,0.29-0.29
		c0-0.193-0.097-0.29-0.29-0.29h-6.815v-7.83h5.162c0.193,0,0.29-0.097,0.29-0.29s-0.097-0.29-0.29-0.29h-5.162v-10.208h6.815
		c0.193,0,0.29-0.097,0.29-0.29s-0.097-0.29-0.29-0.29h-7.105c-0.193,0-0.29,0.097-0.29,0.29v19.198c0,0.188,0.097,0.29,0.29,0.29
		H95.951L95.951,410.951z"/>
	<path fill="#CFCBC2" d="M18.117,466.95c0.502,0,0.918,0.169,1.247,0.507c0.329,0.339,0.493,0.75,0.493,1.232
		c0,0.479-0.165,0.895-0.493,1.229c-0.329,0.338-0.745,0.507-1.247,0.507h-7.569c-0.483,0-0.895-0.169-1.232-0.507
		c-0.339-0.339-0.508-0.749-0.508-1.229v-19.197c0-0.483,0.169-0.896,0.508-1.232c0.338-0.339,0.749-0.508,1.232-0.508
		s0.894,0.169,1.232,0.508c0.338,0.338,0.507,0.749,0.507,1.232v17.458H18.117z M18.117,468.979c0.193,0,0.29-0.096,0.29-0.282
		c0-0.192-0.097-0.29-0.29-0.29h-7.279v-18.907c0-0.193-0.097-0.29-0.29-0.29c-0.194,0-0.29,0.097-0.29,0.29v19.197
		c0,0.188,0.096,0.282,0.29,0.282H18.117L18.117,468.979z"/>
	<path fill="#CFCBC2" d="M32.837,464.659c0,0.115-0.005,0.333-0.015,0.646c-0.01,0.319-0.063,0.688-0.159,1.104
		c-0.097,0.416-0.251,0.855-0.464,1.334c-0.213,0.475-0.512,0.914-0.899,1.319c-0.329,0.36-0.817,0.726-1.464,1.065
		c-0.648,0.354-1.484,0.522-2.508,0.522c-1.025,0-1.852-0.177-2.479-0.522c-0.629-0.348-1.107-0.705-1.436-1.065
		c-0.387-0.433-0.682-0.884-0.885-1.362c-0.203-0.483-0.348-0.942-0.435-1.378c-0.087-0.438-0.13-0.821-0.13-1.16
		c0-0.338,0-0.574,0-0.71v-11.107c0-1.152,0.193-2.098,0.58-2.812c0.386-0.715,0.783-1.257,1.189-1.624
		c0.986-0.929,2.185-1.396,3.596-1.396c0.657,0,1.314,0.116,1.972,0.354c0.657,0.229,1.247,0.59,1.769,1.072
		c0.522,0.479,0.947,1.093,1.276,1.819c0.329,0.735,0.493,1.605,0.493,2.61L32.837,464.659L32.837,464.659z M30.256,468.081
		c0.309-0.329,0.541-0.682,0.696-1.059c0.154-0.385,0.265-0.729,0.333-1.062c0.067-0.328,0.101-0.613,0.101-0.854
		c0-0.241,0-0.39,0-0.427v-11.31c0-1.488-0.464-2.64-1.392-3.451c-0.348-0.309-0.754-0.546-1.218-0.71
		c-0.464-0.164-0.947-0.247-1.45-0.247s-0.981,0.083-1.436,0.247s-0.846,0.41-1.175,0.739c-0.87,0.793-1.305,1.924-1.305,3.393
		v11.165c0,0.062-0.005,0.214-0.015,0.464c-0.01,0.255,0.015,0.56,0.072,0.899c0.058,0.348,0.164,0.721,0.319,1.116
		c0.154,0.396,0.386,0.759,0.696,1.088c0.696,0.754,1.643,1.131,2.842,1.131C28.583,469.212,29.56,468.835,30.256,468.081z
		 M27.327,449.55c0.406,0,0.812,0.068,1.218,0.203c0.406,0.136,0.778,0.354,1.117,0.652c0.338,0.3,0.613,0.688,0.826,1.175
		c0.213,0.484,0.319,1.083,0.319,1.798v11.31v0.029c0.019,0.354-0.01,0.696-0.087,1.044c-0.058,0.312-0.155,0.646-0.29,0.986
		c-0.136,0.348-0.339,0.657-0.609,0.928c-0.58,0.638-1.411,0.957-2.494,0.957c-1.044,0-1.847-0.309-2.407-0.928
		c-0.271-0.29-0.474-0.619-0.609-0.986c-0.136-0.367-0.228-0.71-0.275-1.021c-0.049-0.319-0.063-0.7-0.043-1.146v-0.028v-11.171
		c0-0.649,0.096-1.228,0.29-1.711c0.193-0.479,0.445-0.879,0.754-1.188c0.309-0.312,0.667-0.537,1.073-0.688
		C26.515,449.622,26.921,449.55,27.327,449.55z M28.777,466.688c0.135-0.135,0.242-0.299,0.319-0.484
		c0.077-0.193,0.135-0.395,0.174-0.58c0.039-0.193,0.062-0.363,0.072-0.508c0.01-0.146,0.015-0.246,0.015-0.312v-0.058v-11.368
		c0-0.521-0.072-0.938-0.217-1.247c-0.145-0.309-0.319-0.551-0.522-0.725c-0.203-0.18-0.421-0.285-0.653-0.334
		C27.733,451.024,27.52,451,27.327,451c-0.155,0-0.339,0.024-0.551,0.072c-0.213,0.049-0.416,0.146-0.609,0.305
		s-0.362,0.392-0.507,0.71c-0.145,0.319-0.218,0.74-0.218,1.262v11.252v0.062c0,0.097,0,0.229,0,0.405
		c0,0.175,0.019,0.354,0.058,0.552c0.039,0.188,0.097,0.392,0.174,0.594c0.077,0.203,0.184,0.373,0.319,0.508
		c0.058,0.062,0.183,0.15,0.377,0.275c0.193,0.126,0.512,0.188,0.957,0.188c0.502,0,0.855-0.062,1.058-0.198
		C28.588,466.844,28.719,466.747,28.777,466.688z"/>
	<path fill="#CFCBC2" d="M45.988,464.659c0,0.115-0.005,0.338-0.014,0.667c-0.01,0.329-0.063,0.701-0.16,1.116
		c-0.097,0.416-0.247,0.854-0.45,1.334c-0.203,0.474-0.498,0.913-0.884,1.312c-0.348,0.367-0.846,0.729-1.494,1.073
		c-0.648,0.348-1.484,0.521-2.508,0.521c-1.025,0-1.852-0.175-2.479-0.521c-0.628-0.348-1.107-0.706-1.436-1.073
		c-0.387-0.425-0.682-0.879-0.884-1.355c-0.203-0.482-0.348-0.942-0.435-1.377c-0.087-0.438-0.136-0.821-0.145-1.16
		c-0.01-0.338-0.005-0.575,0.014-0.71v-11.145c0-1.179,0.193-2.121,0.58-2.825c0.387-0.7,0.783-1.254,1.189-1.641
		c0.986-0.928,2.185-1.392,3.596-1.392s2.61,0.438,3.596,1.334c0.406,0.387,0.807,0.938,1.203,1.646
		c0.396,0.722,0.595,1.675,0.595,2.871c0,0.503-0.169,0.919-0.508,1.247c-0.338,0.329-0.749,0.493-1.232,0.493
		c-0.483,0-0.895-0.164-1.232-0.493c-0.338-0.328-0.507-0.744-0.507-1.247c0-0.479-0.058-0.879-0.174-1.188
		c-0.116-0.312-0.266-0.558-0.449-0.729c-0.184-0.174-0.392-0.294-0.624-0.354c-0.232-0.067-0.455-0.104-0.667-0.104
		c-0.155,0-0.338,0.024-0.551,0.072c-0.213,0.049-0.416,0.15-0.609,0.313c-0.193,0.165-0.362,0.399-0.507,0.712
		c-0.145,0.313-0.218,0.731-0.218,1.272v11.281l-0.029,0.058c0,0.104,0.004,0.229,0.015,0.396c0.009,0.165,0.033,0.349,0.072,0.552
		c0.039,0.202,0.097,0.404,0.174,0.604c0.077,0.202,0.183,0.373,0.319,0.513c0.058,0.058,0.179,0.146,0.362,0.271
		c0.183,0.127,0.508,0.188,0.972,0.188c0.502,0,0.855-0.067,1.059-0.203c0.203-0.137,0.333-0.231,0.392-0.29
		c0.135-0.137,0.241-0.3,0.319-0.493c0.077-0.189,0.14-0.387,0.188-0.58c0.048-0.188,0.072-0.364,0.072-0.521
		c0-0.152,0-0.265,0-0.317v-0.028v-2.93h-1.276c-0.483,0-0.895-0.169-1.232-0.508c-0.338-0.338-0.507-0.748-0.507-1.231
		c0-0.479,0.169-0.895,0.507-1.229s0.749-0.509,1.232-0.509h4.756L45.988,464.659L45.988,464.659z M43.407,468.11
		c0.309-0.329,0.542-0.688,0.696-1.062s0.266-0.729,0.333-1.073c0.067-0.338,0.102-0.628,0.102-0.862c0-0.241,0-0.39,0-0.427v-4.866
		h-3.306c-0.193,0-0.29,0.098-0.29,0.29c0,0.188,0.097,0.282,0.29,0.282h2.726v4.321c0,0.426-0.024,0.788-0.073,1.088
		c-0.049,0.306-0.14,0.619-0.275,0.957c-0.135,0.338-0.338,0.652-0.609,0.942c-0.619,0.638-1.46,0.957-2.523,0.957
		c-1.044,0-1.847-0.312-2.407-0.935c-0.271-0.283-0.474-0.612-0.609-0.979c-0.135-0.367-0.223-0.715-0.261-1.044
		c-0.058-0.367-0.078-0.744-0.058-1.131v-0.029v-11.194c0-0.649,0.096-1.228,0.29-1.711c0.193-0.479,0.444-0.879,0.754-1.188
		c0.309-0.312,0.667-0.541,1.073-0.696c0.406-0.154,0.812-0.229,1.218-0.229c0.406,0,0.807,0.063,1.204,0.198
		c0.396,0.144,0.754,0.354,1.073,0.652c0.319,0.301,0.58,0.696,0.783,1.188c0.203,0.492,0.304,1.094,0.304,1.781
		c0,0.193,0.097,0.29,0.29,0.29c0.193,0,0.29-0.097,0.29-0.29c0-0.812-0.121-1.498-0.362-2.059
		c-0.242-0.562-0.551-1.021-0.928-1.363s-0.797-0.599-1.261-0.754c-0.464-0.154-0.928-0.23-1.392-0.23
		c-1.025,0-1.904,0.345-2.639,1.021c-0.851,0.793-1.276,1.924-1.276,3.393v11.165c0,0.062-0.005,0.215-0.015,0.468
		c-0.01,0.256,0.015,0.561,0.073,0.91c0.058,0.357,0.164,0.734,0.319,1.139c0.155,0.396,0.387,0.759,0.696,1.088
		c0.696,0.754,1.643,1.131,2.842,1.131C41.734,469.241,42.711,468.864,43.407,468.11z"/>
	<path fill="#CFCBC2" d="M50.358,447.752c0.502,0,0.918,0.169,1.247,0.508c0.329,0.338,0.493,0.749,0.493,1.232v19.197
		c0,0.479-0.165,0.895-0.493,1.229c-0.329,0.338-0.744,0.507-1.247,0.507c-0.484,0-0.895-0.169-1.233-0.507
		c-0.338-0.339-0.507-0.749-0.507-1.229v-19.197c0-0.483,0.169-0.896,0.507-1.232C49.464,447.921,49.875,447.752,50.358,447.752z
		 M50.648,449.492c0-0.193-0.097-0.29-0.29-0.29c-0.194,0-0.29,0.097-0.29,0.29v19.197c0,0.188,0.096,0.282,0.29,0.282
		c0.193,0,0.29-0.096,0.29-0.282V449.492z"/>
	<path fill="#CFCBC2" d="M64.849,447.752c0.483,0,0.894,0.169,1.232,0.508c0.338,0.338,0.507,0.749,0.507,1.232v19.169v0.116v0.087
		v0.021v0.062l-0.029,0.025v0.024v0.062v0.023c-0.02,0.021-0.029,0.039-0.029,0.062v0.021c0,0.021-0.005,0.029-0.014,0.029
		c-0.01,0-0.015,0.01-0.015,0.027c0,0.021-0.005,0.03-0.015,0.044c-0.01,0.011-0.014,0.021-0.014,0.045
		c0,0.02-0.005,0.031-0.015,0.043c-0.01,0.01-0.015,0.021-0.015,0.044c0,0.02-0.005,0.026-0.015,0.026
		c-0.01,0-0.014,0.013-0.014,0.023v0.029c-0.02,0-0.029,0.01-0.029,0.025l-0.029,0.024c0,0.021-0.01,0.039-0.029,0.062l-0.029,0.024
		v0.027c-0.02,0-0.029,0.011-0.029,0.026c0,0.021-0.01,0.026-0.029,0.026c0,0.021-0.005,0.025-0.014,0.025
		c-0.01,0-0.015,0.013-0.015,0.027h-0.029c0,0.021-0.01,0.039-0.029,0.061l-0.058,0.062l-0.058,0.061l-0.058,0.062h-0.029
		l-0.058,0.062c-0.02,0.021-0.039,0.027-0.058,0.027c0,0.021-0.01,0.024-0.029,0.024l-0.029,0.027c-0.02,0-0.029,0.006-0.029,0.017
		c0,0.014-0.01,0.019-0.029,0.019H65.69l-0.058,0.062c-0.077,0.038-0.145,0.063-0.203,0.087c-0.058,0.021-0.135,0.039-0.232,0.062
		c-0.077,0.021-0.193,0.025-0.348,0.025c-0.116,0-0.203-0.01-0.261-0.025H64.53h-0.029c-0.02,0-0.029-0.014-0.029-0.024h-0.116
		v-0.029h-0.058c-0.078-0.039-0.126-0.059-0.145-0.059c-0.02,0-0.029-0.013-0.029-0.028h-0.029c-0.019,0-0.029-0.01-0.029-0.025
		c-0.02,0-0.039-0.014-0.058-0.024c-0.02,0-0.029-0.015-0.029-0.029H63.95c-0.019,0-0.029-0.005-0.029-0.015
		c0-0.014-0.01-0.021-0.029-0.021c-0.213-0.146-0.387-0.338-0.522-0.551v-0.029c-0.02,0-0.029-0.009-0.029-0.021l-0.029-0.029
		v-0.029c-0.02-0.019-0.029-0.031-0.029-0.058c0-0.021-0.01-0.039-0.029-0.062l-4.959-11.45v10.783c0,0.48-0.169,0.896-0.507,1.229
		c-0.339,0.338-0.75,0.507-1.232,0.507c-0.484,0-0.895-0.169-1.233-0.507c-0.338-0.339-0.507-0.749-0.507-1.229v-19.169v-0.111
		v-0.087v-0.029v-0.062l0.029-0.024v-0.029v-0.058v-0.029c0.019-0.021,0.029-0.039,0.029-0.058v-0.029
		c0-0.021,0.004-0.029,0.014-0.029c0.01,0,0.015-0.01,0.015-0.021c0-0.021,0.004-0.033,0.015-0.043
		c0.009-0.018,0.015-0.024,0.015-0.044c0-0.021,0.004-0.033,0.014-0.047c0.01-0.014,0.015-0.021,0.015-0.048
		c0-0.019,0.004-0.021,0.015-0.021c0.009,0,0.014-0.01,0.014-0.029v-0.029l0.058-0.058c0-0.021,0.004-0.029,0.015-0.029
		c0.009,0,0.015-0.01,0.015-0.021l0.029-0.028v-0.029c0.019-0.019,0.029-0.036,0.029-0.058h0.029c0-0.021,0.004-0.029,0.014-0.029
		c0.01,0,0.015-0.01,0.015-0.023h0.029c0-0.021,0.01-0.036,0.029-0.062l0.058-0.059v-0.028c0.019,0,0.039-0.01,0.058-0.029v-0.021
		c0.019,0,0.039-0.012,0.058-0.028h0.029l0.058-0.061l0.058-0.062h0.029c0-0.02,0.009-0.026,0.029-0.026
		c0.019,0,0.029-0.006,0.029-0.018c0-0.009,0.01-0.015,0.029-0.015h0.029l0.058-0.062c0.135-0.075,0.271-0.125,0.406-0.145h0.029
		c0.096-0.021,0.241-0.029,0.435-0.029h0.087h0.029l0.029,0.029h0.058h0.029h0.058c0,0.02,0.009,0.021,0.029,0.021h0.058h0.029
		c0,0.021,0.019,0.029,0.058,0.029c0.019,0.021,0.048,0.029,0.087,0.029c0.019,0.02,0.039,0.021,0.058,0.021h0.029
		c0,0.021,0.019,0.028,0.058,0.028v0.029c0.039,0,0.058,0.01,0.058,0.024h0.029c0.019,0,0.029,0.008,0.029,0.019
		s0.009,0.015,0.029,0.015l0.029,0.029l0.029,0.026l0.029,0.023h0.029c0.019,0.021,0.039,0.029,0.058,0.029v0.025
		c0.019,0,0.029,0.007,0.029,0.019c0,0.01,0.009,0.015,0.029,0.015v0.028c0.019,0,0.029,0.005,0.029,0.017
		c0,0.016,0.009,0.021,0.029,0.021v0.024l0.058,0.062l0.058,0.058l0.058,0.062c0,0.02,0.01,0.039,0.029,0.058
		c0.019,0,0.029,0.01,0.029,0.029c0,0.019,0.01,0.024,0.029,0.024c0,0.039,0.009,0.062,0.029,0.062v0.028
		c0.019,0.02,0.029,0.035,0.029,0.059h0.029c0,0.039,0.004,0.062,0.014,0.072c0.01,0.01,0.015,0.021,0.015,0.044l4.959,11.455
		V449.48c0-0.483,0.169-0.896,0.507-1.232C63.955,447.921,64.365,447.752,64.849,447.752z M65.139,449.492
		c0-0.193-0.097-0.29-0.29-0.29c-0.194,0-0.29,0.097-0.29,0.29v17.806l-7.743-17.922l-0.029-0.029v-0.021h-0.029v-0.029
		l-0.029-0.029H56.7v-0.021h-0.029h-0.029v-0.028h-0.029h-0.029h-0.029h-0.029h-0.029h-0.029l-0.029,0.028H56.41l-0.029,0.021
		h-0.029v0.029h-0.029v0.029h-0.029v0.021v0.029h-0.029v0.029v0.021v0.029v0.029v19.189c0,0.194,0.096,0.29,0.29,0.29
		c0.193,0,0.29-0.096,0.29-0.29v-17.8l7.743,17.922l0.029,0.029c0,0.02,0.01,0.028,0.029,0.028v0.021h0.029v0.029h0.029
		c0,0.021,0.009,0.027,0.029,0.027c0.019,0,0.029,0.012,0.029,0.022h0.029h0.029h0.029h0.058c0.019,0,0.039-0.009,0.058-0.022h0.029
		l0.029-0.027h0.029v-0.029h0.029v-0.021c0.019,0,0.029-0.017,0.029-0.028V468.8h0.029v-0.021v-0.029v-0.029v-0.021V449.492z"/>
	<path fill="#CFCBC2" d="M21.771,526.689c0,0.479-0.169,0.895-0.507,1.229c-0.338,0.338-0.75,0.507-1.232,0.507
		c-0.483,0-0.895-0.169-1.232-0.507c-0.338-0.339-0.508-0.749-0.508-1.229v-11.947l-1.827,3.596
		c-0.155,0.426-0.435,0.735-0.841,0.928c-0.232,0.116-0.474,0.182-0.725,0.182H14.87h-0.03h-0.029h-0.029
		c-0.251,0-0.493-0.062-0.725-0.182c-0.406-0.188-0.687-0.502-0.841-0.928l-1.827-3.596v11.947c0,0.479-0.169,0.895-0.507,1.229
		c-0.339,0.338-0.75,0.507-1.232,0.507c-0.484,0-0.895-0.169-1.233-0.507c-0.338-0.339-0.507-0.749-0.507-1.229v-19.197v-0.087
		v-0.087v-0.029v-0.029c0-0.019,0.004-0.021,0.015-0.021c0.009,0,0.014-0.017,0.014-0.028v-0.029v-0.058
		c0-0.021,0.005-0.034,0.015-0.044c0.01-0.011,0.015-0.024,0.015-0.043c0.019-0.116,0.058-0.229,0.116-0.319
		c0-0.02,0.005-0.027,0.015-0.027c0.01,0,0.015-0.012,0.015-0.023l0.029-0.028l0.029-0.025c0-0.021,0.009-0.037,0.029-0.062v-0.029
		l0.058-0.058c0.039-0.039,0.072-0.077,0.102-0.116c0.029-0.039,0.062-0.077,0.101-0.113l0.058-0.061H8.55
		c0-0.021,0.004-0.029,0.014-0.029c0.01,0,0.015-0.01,0.015-0.023h0.029c0.019-0.021,0.039-0.026,0.058-0.026
		c0-0.021,0.01-0.027,0.029-0.027l0.029-0.025l0.058-0.027c0.019-0.021,0.039-0.026,0.058-0.026l0.029-0.026
		c0.019,0,0.039-0.012,0.058-0.026c0.019,0,0.033-0.004,0.043-0.017c0.009-0.012,0.024-0.018,0.043-0.018s0.034-0.007,0.043-0.017
		c0.009-0.014,0.024-0.02,0.043-0.02s0.039-0.013,0.058-0.025h0.029h0.058l0.029-0.027h0.029H9.36h0.029
		c0.019-0.021,0.039-0.026,0.058-0.026h0.029h0.087H9.65h0.087h0.058h0.029c0.019,0,0.039,0.013,0.058,0.026H9.94h0.029h0.058
		c0.077,0.039,0.145,0.062,0.203,0.072s0.116,0.031,0.174,0.068h0.029c0,0.021,0.019,0.025,0.058,0.025
		c0,0.021,0.009,0.028,0.029,0.028l0.029,0.024c0.019,0,0.039,0.015,0.058,0.026l0.058,0.062h0.029
		c0.096,0.062,0.174,0.14,0.232,0.229l0.058,0.062l0.058,0.062c0,0.021,0.005,0.026,0.015,0.026c0.01,0,0.015,0.013,0.015,0.023
		l0.029,0.029l0.029,0.028c0,0.02,0.009,0.036,0.029,0.059c0,0.021,0.004,0.034,0.015,0.043c0.009,0.013,0.014,0.024,0.014,0.044
		l3.654,7.163l3.654-7.163c0-0.039,0.01-0.062,0.029-0.087c0.019-0.021,0.029-0.039,0.029-0.059c0.019,0,0.029-0.017,0.029-0.028
		l0.029-0.029c0-0.019,0.009-0.036,0.029-0.058l0.058-0.062l0.058-0.06c0.058-0.097,0.135-0.174,0.232-0.229l0.058-0.061h0.029
		c0.019-0.02,0.039-0.028,0.058-0.028l0.029-0.022c0.019,0,0.029-0.014,0.029-0.028c0.038,0,0.058-0.01,0.058-0.026h0.029
		c0.039-0.037,0.087-0.062,0.145-0.068c0.058-0.014,0.106-0.023,0.145-0.045c0.038,0,0.067-0.012,0.087-0.026h0.058h0.029h0.058
		c0-0.021,0.009-0.027,0.029-0.027h0.058h0.058h0.087h0.087h0.087c0.039,0,0.068,0.012,0.087,0.027h0.058h0.058l0.029,0.026h0.058
		h0.029l0.058,0.023c0.019,0,0.034,0.008,0.043,0.021c0.009,0.011,0.024,0.016,0.044,0.016c0.019,0,0.038,0.012,0.058,0.028h0.029
		c0.019,0.02,0.039,0.024,0.058,0.024v0.026c0.039,0,0.068,0.01,0.087,0.028c0.019,0.02,0.039,0.021,0.058,0.021l0.029,0.029
		l0.029,0.029c0.019,0,0.039,0.01,0.058,0.021l0.058,0.062c0.039,0,0.058,0.02,0.058,0.058c0.096,0.062,0.174,0.139,0.232,0.232
		l0.058,0.058v0.029c0.019,0.02,0.029,0.039,0.029,0.058c0.019,0,0.029,0.017,0.029,0.029l0.029,0.028
		c0,0.02,0.009,0.039,0.029,0.059c0.039,0.097,0.077,0.203,0.116,0.319c0,0.038,0.009,0.062,0.029,0.087v0.058v0.029
		c0,0.02,0.01,0.039,0.029,0.058v0.029v0.029v0.087v0.087v19.196L21.771,526.689L21.771,526.689z M20.321,507.492v-0.029v-0.029
		v-0.021l-0.029-0.029v-0.026l-0.029-0.023c0-0.021-0.01-0.029-0.029-0.029v-0.025h-0.029c-0.02,0-0.029-0.014-0.029-0.025h-0.029
		h-0.029v-0.028h-0.029H20.06h-0.029h-0.029h-0.029h-0.029v0.028h-0.029h-0.029c0,0.021-0.01,0.025-0.029,0.025l-0.029,0.025
		c-0.02,0-0.029,0.012-0.029,0.029v0.023H19.77l-4.93,9.72l-4.93-9.722H9.881v-0.021c-0.02,0-0.029-0.012-0.029-0.029l-0.029-0.025
		H9.794v-0.025H9.765H9.736v-0.028H9.707H9.678H9.649H9.62H9.591H9.562l-0.029,0.028H9.504l-0.029,0.025H9.446v0.025
		c-0.02,0-0.029,0.012-0.029,0.029c-0.019,0-0.029,0.01-0.029,0.021v0.028l-0.029,0.029v0.021v0.029v0.029v19.197
		c0,0.188,0.096,0.282,0.29,0.282c0.193,0,0.29-0.096,0.29-0.282V508.71l4.611,9.048c0.039,0.104,0.087,0.164,0.145,0.203
		c0.039,0.021,0.087,0.029,0.145,0.029c0.058,0,0.106-0.01,0.145-0.029c0.058-0.039,0.106-0.104,0.145-0.203l4.611-9.048v17.979
		c0,0.188,0.097,0.282,0.29,0.282c0.193,0,0.29-0.096,0.29-0.282V507.492z"/>
	<path fill="#CFCBC2" d="M34.818,526.168c0.096,0.483,0.014,0.924-0.247,1.319c-0.261,0.396-0.633,0.643-1.117,0.731
		c-0.077,0.021-0.184,0.029-0.319,0.029c-0.406,0-0.769-0.131-1.087-0.393c-0.318-0.268-0.527-0.602-0.624-1l-0.609-2.959h-3.103
		l-0.609,2.959c-0.078,0.398-0.276,0.732-0.595,1c-0.319,0.262-0.682,0.393-1.087,0.393c-0.155,0-0.271-0.01-0.348-0.029
		c-0.483-0.097-0.855-0.343-1.117-0.731c-0.261-0.396-0.343-0.836-0.246-1.319l3.857-19.169v-0.029v-0.058
		c0-0.021,0.004-0.029,0.014-0.029c0.01,0,0.015-0.01,0.015-0.021v-0.028v-0.03c0.019-0.02,0.029-0.038,0.029-0.058
		c0-0.021,0.004-0.029,0.014-0.029c0.01,0,0.015-0.01,0.015-0.028v-0.022c0.058-0.154,0.145-0.289,0.261-0.405v-0.028
		c0.019,0,0.029-0.006,0.029-0.016s0.009-0.015,0.029-0.015v-0.028l0.029-0.029l0.029-0.023l0.029-0.026l0.029-0.028l0.029-0.024
		l0.058-0.027c0.116-0.114,0.251-0.201,0.406-0.263h0.029c0.019-0.021,0.039-0.026,0.058-0.026c0.096-0.039,0.184-0.062,0.261-0.071
		c0.077-0.011,0.164-0.021,0.261-0.043h0.029h0.058h0.058c0.096,0.021,0.184,0.032,0.261,0.043c0.077,0.012,0.164,0.032,0.261,0.071
		c0.019,0,0.039,0.012,0.058,0.026h0.029c0.154,0.062,0.29,0.146,0.406,0.263c0.019,0,0.039,0.012,0.058,0.027l0.029,0.024
		l0.029,0.028l0.029,0.026l0.029,0.023l0.029,0.029l0.029,0.028l0.029,0.021v0.029c0.116,0.116,0.203,0.251,0.261,0.405v0.021
		c0,0.021,0.005,0.029,0.015,0.029c0.01,0,0.015,0.01,0.015,0.029c0.039,0.107,0.058,0.198,0.058,0.261L34.818,526.168z
		 M33.194,526.806c0.077-0.019,0.14-0.062,0.188-0.13c0.048-0.062,0.053-0.141,0.015-0.218L29.54,507.26v-0.021v-0.028h-0.029
		v-0.029c0-0.019-0.01-0.022-0.029-0.022v-0.027h-0.029V507.1h-0.029l-0.029-0.024h-0.029c-0.02,0-0.034-0.006-0.043-0.02
		c-0.01-0.009-0.024-0.014-0.043-0.014h-0.03c-0.039,0-0.058,0.01-0.058,0.023h-0.029h-0.029c0,0.021-0.01,0.026-0.029,0.026h-0.029
		v0.029h-0.029v0.021c-0.02,0-0.029,0.019-0.029,0.029v0.029h-0.029v0.022v0.027l-3.857,19.198c-0.039,0.188,0.029,0.31,0.203,0.348
		h0.058c0.155,0,0.251-0.075,0.29-0.229l0.841-4.118h5.481l0.841,4.118c0.039,0.148,0.135,0.229,0.29,0.229L33.194,526.806
		L33.194,526.806z M29.279,508.797l2.61,13.079H26.64L29.279,508.797z M29.279,516.163l-0.87,4.263h1.711L29.279,516.163z"/>
	<path fill="#CFCBC2" d="M47.58,522.659c0,0.115-0.005,0.338-0.014,0.667c-0.01,0.329-0.063,0.701-0.16,1.116
		c-0.097,0.416-0.247,0.854-0.45,1.334c-0.203,0.474-0.498,0.913-0.884,1.312c-0.348,0.367-0.846,0.729-1.494,1.073
		c-0.648,0.348-1.484,0.521-2.508,0.521c-1.025,0-1.852-0.176-2.479-0.521c-0.628-0.349-1.107-0.706-1.436-1.073
		c-0.387-0.425-0.682-0.879-0.884-1.355c-0.203-0.482-0.348-0.942-0.435-1.377c-0.087-0.438-0.136-0.821-0.145-1.16
		c-0.01-0.338-0.005-0.575,0.014-0.71v-11.145c0-1.179,0.193-2.121,0.58-2.825c0.387-0.7,0.783-1.254,1.189-1.641
		c0.986-0.928,2.185-1.392,3.596-1.392c1.411,0,2.61,0.438,3.596,1.334c0.406,0.387,0.807,0.938,1.203,1.646
		c0.396,0.722,0.595,1.675,0.595,2.871c0,0.503-0.169,0.919-0.508,1.247c-0.338,0.329-0.749,0.493-1.232,0.493
		s-0.895-0.164-1.232-0.493c-0.338-0.328-0.507-0.744-0.507-1.247c0-0.479-0.058-0.879-0.174-1.188
		c-0.116-0.312-0.266-0.557-0.449-0.729c-0.184-0.174-0.392-0.294-0.624-0.359c-0.232-0.062-0.455-0.104-0.667-0.104
		c-0.155,0-0.338,0.022-0.551,0.072c-0.213,0.049-0.416,0.15-0.609,0.313c-0.193,0.165-0.362,0.399-0.507,0.712
		c-0.145,0.313-0.218,0.731-0.218,1.272v11.281l-0.029,0.058c0,0.104,0.004,0.229,0.015,0.396c0.009,0.164,0.033,0.351,0.072,0.554
		c0.039,0.2,0.097,0.403,0.174,0.604c0.077,0.201,0.183,0.373,0.319,0.512c0.058,0.06,0.179,0.146,0.362,0.271
		c0.183,0.127,0.508,0.188,0.972,0.188c0.502,0,0.855-0.065,1.059-0.201c0.203-0.139,0.333-0.231,0.392-0.29
		c0.135-0.138,0.241-0.302,0.319-0.493c0.077-0.19,0.14-0.388,0.188-0.58c0.048-0.188,0.072-0.364,0.072-0.521
		c0-0.15,0-0.264,0-0.315v-0.028v-2.93h-1.276c-0.483,0-0.895-0.169-1.232-0.508c-0.338-0.339-0.507-0.748-0.507-1.232
		c0-0.479,0.169-0.894,0.507-1.229c0.338-0.342,0.749-0.512,1.232-0.512h4.756L47.58,522.659L47.58,522.659z M44.999,526.11
		c0.309-0.329,0.542-0.688,0.696-1.062c0.154-0.377,0.266-0.729,0.333-1.073c0.067-0.338,0.102-0.628,0.102-0.862
		c0-0.241,0-0.39,0-0.428v-4.867h-3.306c-0.193,0-0.29,0.1-0.29,0.286c0,0.192,0.097,0.288,0.29,0.288h2.726v4.321
		c0,0.426-0.024,0.788-0.073,1.088s-0.14,0.619-0.275,0.957c-0.135,0.338-0.338,0.652-0.609,0.942
		c-0.619,0.638-1.46,0.957-2.523,0.957c-1.044,0-1.847-0.312-2.407-0.937c-0.271-0.289-0.474-0.61-0.609-0.979
		c-0.135-0.367-0.223-0.715-0.261-1.044c-0.058-0.367-0.078-0.744-0.058-1.131v-0.029v-11.194c0-0.652,0.096-1.228,0.29-1.711
		c0.193-0.479,0.444-0.879,0.754-1.188c0.309-0.312,0.667-0.541,1.073-0.696c0.406-0.154,0.812-0.231,1.218-0.231
		c0.406,0,0.807,0.067,1.204,0.202c0.396,0.143,0.754,0.354,1.073,0.652c0.319,0.301,0.58,0.696,0.783,1.188
		c0.203,0.492,0.304,1.095,0.304,1.782c0,0.193,0.097,0.29,0.29,0.29c0.193,0,0.29-0.097,0.29-0.29c0-0.812-0.121-1.498-0.362-2.059
		c-0.242-0.562-0.551-1.021-0.928-1.363s-0.797-0.599-1.261-0.754c-0.464-0.154-0.928-0.23-1.392-0.23
		c-1.025,0-1.904,0.345-2.639,1.021c-0.851,0.793-1.276,1.924-1.276,3.393v11.165c0,0.062-0.005,0.217-0.015,0.467
		c-0.01,0.254,0.015,0.562,0.073,0.911c0.058,0.357,0.164,0.734,0.319,1.137c0.155,0.396,0.387,0.761,0.696,1.09
		c0.696,0.754,1.643,1.131,2.842,1.131C43.327,527.241,44.303,526.864,44.999,526.11z"/>
	<path fill="#CFCBC2" d="M60.444,526.168c0.096,0.483,0.014,0.924-0.247,1.319c-0.261,0.396-0.633,0.643-1.117,0.731
		c-0.077,0.021-0.184,0.029-0.319,0.029c-0.406,0-0.769-0.131-1.087-0.393c-0.318-0.268-0.527-0.602-0.624-1l-0.609-2.959h-3.103
		l-0.609,2.959c-0.078,0.398-0.276,0.732-0.595,1c-0.319,0.262-0.682,0.393-1.087,0.393c-0.155,0-0.271-0.01-0.348-0.029
		c-0.483-0.097-0.855-0.343-1.117-0.731c-0.261-0.396-0.343-0.836-0.246-1.319l3.857-19.169v-0.029v-0.058
		c0-0.021,0.004-0.029,0.014-0.029c0.01,0,0.015-0.01,0.015-0.021v-0.028v-0.03c0.019-0.02,0.029-0.038,0.029-0.058
		c0-0.021,0.004-0.029,0.014-0.029c0.01,0,0.015-0.01,0.015-0.028v-0.022c0.058-0.154,0.145-0.289,0.261-0.405v-0.028
		c0.019,0,0.029-0.006,0.029-0.016s0.009-0.015,0.029-0.015v-0.028l0.029-0.029l0.029-0.023l0.029-0.026l0.029-0.028l0.029-0.024
		l0.058-0.027c0.116-0.114,0.251-0.201,0.406-0.263h0.029c0.019-0.021,0.039-0.026,0.058-0.026c0.096-0.039,0.184-0.062,0.261-0.071
		c0.077-0.011,0.164-0.021,0.261-0.043h0.029h0.058h0.058c0.096,0.021,0.184,0.032,0.261,0.043c0.077,0.012,0.164,0.032,0.261,0.071
		c0.019,0,0.039,0.012,0.058,0.026h0.029c0.154,0.062,0.29,0.146,0.406,0.263c0.019,0,0.039,0.012,0.058,0.027l0.029,0.024
		l0.029,0.028l0.029,0.026l0.029,0.023l0.029,0.029l0.029,0.028l0.029,0.021v0.029c0.116,0.116,0.203,0.251,0.261,0.405v0.021
		c0,0.021,0.005,0.029,0.015,0.029c0.01,0,0.015,0.01,0.015,0.029c0.039,0.107,0.058,0.198,0.058,0.261L60.444,526.168z
		 M58.82,526.806c0.077-0.019,0.14-0.062,0.188-0.13c0.048-0.062,0.053-0.141,0.015-0.218l-3.857-19.198v-0.021v-0.028h-0.029
		v-0.029c0-0.019-0.01-0.022-0.029-0.022v-0.027h-0.029V507.1H55.05l-0.029-0.024h-0.029c-0.02,0-0.034-0.006-0.043-0.02
		c-0.01-0.009-0.024-0.014-0.043-0.014h-0.029c-0.039,0-0.058,0.01-0.058,0.023H54.79h-0.03c0,0.021-0.01,0.026-0.029,0.026h-0.029
		v0.029h-0.029v0.021c-0.02,0-0.029,0.019-0.029,0.029v0.029h-0.029v0.022v0.027l-3.857,19.198c-0.039,0.188,0.029,0.31,0.203,0.348
		h0.058c0.155,0,0.251-0.075,0.29-0.229l0.841-4.118h5.481l0.841,4.118c0.039,0.148,0.135,0.229,0.29,0.229L58.82,526.806
		L58.82,526.806z M54.905,508.797l2.61,13.079h-5.249L54.905,508.797z M54.905,516.163l-0.87,4.263h1.711L54.905,516.163z"/>
	<path fill="#CFCBC2" d="M71.736,524.921c0.483,0,0.894,0.17,1.233,0.508c0.338,0.338,0.507,0.749,0.507,1.232
		c0,0.479-0.169,0.895-0.507,1.229c-0.339,0.346-0.75,0.515-1.233,0.515H64.37c-0.329,0-0.619-0.077-0.87-0.231
		c-0.425-0.19-0.725-0.503-0.899-0.928c-0.174-0.427-0.174-0.86,0-1.312l6.583-16.675h-3.799c-0.484,0-0.895-0.169-1.233-0.508
		c-0.338-0.338-0.507-0.749-0.507-1.23c0-0.504,0.169-0.92,0.507-1.241c0.338-0.328,0.749-0.492,1.233-0.492h6.351h0.087h0.087
		h0.087h0.029l0.029,0.021h0.058h0.029c0.019,0,0.029,0.013,0.029,0.021s0.01,0.015,0.029,0.015h0.029l0.058,0.029
		c0.039,0,0.067,0.01,0.087,0.028c0.019,0,0.034,0.006,0.043,0.015c0.01,0.01,0.024,0.015,0.043,0.015s0.039,0.018,0.058,0.029
		l0.029,0.028h0.058c0,0.02,0.01,0.021,0.029,0.021l0.029,0.029l0.029,0.029h0.029c0.019,0.02,0.039,0.021,0.058,0.021v0.029
		c0.077,0.059,0.174,0.146,0.29,0.261v0.029c0.038,0,0.058,0.021,0.058,0.058h0.029c0,0.021,0.009,0.039,0.029,0.062l0.029,0.023
		v0.026c0.019,0.021,0.029,0.039,0.029,0.062l0.029,0.023c0.077,0.155,0.125,0.28,0.145,0.377v0.062
		c0.019,0,0.029,0.011,0.029,0.023v0.062v0.025v0.024c0.019,0.021,0.029,0.039,0.029,0.062v0.022v0.062v0.022v0.091v0.088v0.062
		v0.027c0,0.021-0.01,0.036-0.029,0.06v0.027v0.06v0.028c0,0.021-0.01,0.025-0.029,0.025v0.09c-0.02,0.021-0.029,0.048-0.029,0.087
		c0,0.021-0.005,0.031-0.015,0.043c-0.01,0.012-0.015,0.021-0.015,0.045l-6.612,16.763L71.736,524.921L71.736,524.921z
		 M71.736,526.951c0.193,0,0.29-0.104,0.29-0.29c0-0.193-0.097-0.29-0.29-0.29h-7.134l7.395-18.764l0.029-0.028v-0.029v-0.021V507.5
		v-0.029v-0.023c0-0.021-0.01-0.026-0.029-0.026v-0.029c0-0.02-0.01-0.023-0.029-0.023v-0.026h-0.029v-0.028H71.91v-0.024h-0.029
		h-0.029v-0.027h-0.029h-0.029h-0.029h-0.029h-6.351c-0.194,0-0.29,0.1-0.29,0.29s0.096,0.29,0.29,0.29h5.916l-7.366,18.678
		c-0.078,0.176-0.02,0.301,0.174,0.377h0.058c0.019,0.061,0.087,0.087,0.203,0.087h7.366V526.951z"/>
	<path fill="#CFCBC2" d="M77.861,505.752c0.502,0,0.918,0.169,1.247,0.508c0.329,0.338,0.493,0.749,0.493,1.232v19.197
		c0,0.479-0.165,0.895-0.493,1.229c-0.329,0.338-0.744,0.507-1.247,0.507c-0.484,0-0.895-0.169-1.233-0.507
		c-0.338-0.339-0.507-0.749-0.507-1.229v-19.197c0-0.483,0.169-0.896,0.507-1.232C76.966,505.921,77.377,505.752,77.861,505.752z
		 M78.151,507.492c0-0.193-0.097-0.29-0.29-0.29c-0.194,0-0.29,0.097-0.29,0.29v19.197c0,0.188,0.096,0.289,0.29,0.289
		c0.193,0,0.29-0.103,0.29-0.289V507.492z"/>
	<path fill="#CFCBC2" d="M92.352,505.752c0.483,0,0.894,0.169,1.232,0.508c0.338,0.338,0.507,0.749,0.507,1.232v19.169v0.116v0.087
		v0.021v0.062l-0.029,0.021v0.028v0.062v0.023c-0.02,0.021-0.029,0.039-0.029,0.062v0.021c0,0.021-0.005,0.029-0.014,0.029
		c-0.01,0-0.015,0.01-0.015,0.027c0,0.021-0.005,0.03-0.015,0.044c-0.01,0.011-0.014,0.021-0.014,0.045
		c0,0.02-0.005,0.032-0.015,0.043c-0.01,0.01-0.015,0.021-0.015,0.044c0,0.021-0.005,0.027-0.015,0.027
		c-0.01,0-0.014,0.012-0.014,0.022v0.029c-0.02,0-0.029,0.01-0.029,0.026l-0.029,0.023c0,0.021-0.01,0.039-0.029,0.062l-0.029,0.03
		v0.028c-0.02,0-0.029,0.011-0.029,0.027c0,0.02-0.01,0.023-0.029,0.023c0,0.021-0.005,0.028-0.014,0.028
		c-0.01,0-0.015,0.011-0.015,0.026h-0.029c0,0.021-0.01,0.039-0.029,0.061l-0.058,0.062l-0.058,0.062l-0.058,0.06h-0.029
		l-0.058,0.062c-0.02,0.02-0.039,0.025-0.058,0.025c0,0.021-0.01,0.024-0.029,0.024l-0.029,0.028c-0.02,0-0.029,0.006-0.029,0.017
		c0,0.013-0.01,0.018-0.029,0.018h-0.029l-0.058,0.062c-0.077,0.038-0.145,0.063-0.203,0.087c-0.058,0.021-0.135,0.039-0.232,0.062
		c-0.077,0.021-0.193,0.025-0.348,0.025c-0.116,0-0.203-0.01-0.261-0.025h-0.058h-0.029c-0.02,0-0.029-0.014-0.029-0.024h-0.116
		v-0.029H91.8c-0.078-0.039-0.126-0.058-0.145-0.058c-0.02,0-0.029-0.014-0.029-0.029h-0.029c-0.019,0-0.029-0.01-0.029-0.026
		c-0.02,0-0.039-0.013-0.058-0.023c-0.02,0-0.029-0.015-0.029-0.029h-0.029c-0.019,0-0.029-0.005-0.029-0.015
		c0-0.015-0.01-0.021-0.029-0.021c-0.213-0.147-0.387-0.338-0.522-0.551v-0.028c-0.02,0-0.029-0.01-0.029-0.021l-0.029-0.029v-0.028
		c-0.02-0.02-0.029-0.036-0.029-0.059c0-0.021-0.01-0.039-0.029-0.062l-4.959-11.452v10.784c0,0.48-0.169,0.896-0.507,1.229
		c-0.339,0.338-0.75,0.507-1.232,0.507c-0.484,0-0.895-0.169-1.233-0.507c-0.338-0.339-0.507-0.749-0.507-1.229v-19.17v-0.111
		v-0.087v-0.028v-0.062l0.029-0.024v-0.029v-0.058v-0.029c0.019-0.021,0.029-0.039,0.029-0.059v-0.028
		c0-0.021,0.004-0.029,0.014-0.029c0.01,0,0.015-0.01,0.015-0.022c0-0.021,0.004-0.032,0.015-0.043
		c0.009-0.017,0.015-0.023,0.015-0.044c0-0.021,0.004-0.033,0.014-0.046c0.01-0.014,0.015-0.021,0.015-0.045
		c0-0.021,0.004-0.024,0.015-0.024c0.009,0,0.014-0.012,0.014-0.028v-0.028l0.058-0.059c0-0.021,0.004-0.029,0.015-0.029
		c0.009,0,0.015-0.01,0.015-0.022l0.029-0.027v-0.029c0.019-0.019,0.029-0.036,0.029-0.058h0.029c0-0.021,0.004-0.029,0.014-0.029
		c0.01,0,0.015-0.01,0.015-0.023h0.029c0-0.021,0.01-0.037,0.029-0.062l0.058-0.06v-0.027c0.019,0,0.039-0.011,0.058-0.029v-0.022
		c0.019,0,0.039-0.011,0.058-0.027h0.029l0.058-0.061l0.058-0.062h0.029c0-0.021,0.009-0.024,0.029-0.024
		c0.019,0,0.029-0.009,0.029-0.02c0-0.009,0.01-0.016,0.029-0.016h0.029l0.058-0.062c0.135-0.075,0.271-0.125,0.406-0.146h0.029
		c0.096-0.021,0.241-0.028,0.435-0.028h0.087h0.029l0.029,0.028h0.058h0.029h0.058c0,0.021,0.009,0.024,0.029,0.024h0.058h0.029
		c0,0.021,0.019,0.026,0.058,0.026c0.019,0.021,0.048,0.029,0.087,0.029c0.019,0.02,0.039,0.024,0.058,0.024h0.029
		c0,0.021,0.019,0.025,0.058,0.025v0.029c0.039,0,0.058,0.01,0.058,0.024h0.029c0.019,0,0.029,0.006,0.029,0.019
		c0,0.011,0.009,0.015,0.029,0.015l0.029,0.029l0.029,0.025l0.029,0.024h0.029c0.019,0.021,0.039,0.029,0.058,0.029v0.025
		c0.019,0,0.029,0.006,0.029,0.019c0,0.01,0.009,0.015,0.029,0.015v0.028c0.019,0,0.029,0.005,0.029,0.018
		c0,0.011,0.009,0.02,0.029,0.02v0.024l0.058,0.062l0.058,0.058l0.058,0.062c0,0.02,0.01,0.037,0.029,0.058
		c0.019,0,0.029,0.014,0.029,0.029c0,0.015,0.01,0.024,0.029,0.024c0,0.039,0.009,0.062,0.029,0.062v0.024
		c0.019,0.021,0.029,0.039,0.029,0.062h0.029c0,0.039,0.004,0.062,0.014,0.072c0.01,0.01,0.015,0.021,0.015,0.044l4.959,11.455
		V507.49c0-0.483,0.169-0.896,0.507-1.232C91.457,505.921,91.868,505.752,92.352,505.752z M92.642,507.492
		c0-0.193-0.097-0.29-0.29-0.29c-0.194,0-0.29,0.097-0.29,0.29v17.806l-7.743-17.922l-0.029-0.029v-0.021h-0.03v-0.029l-0.029-0.029
		h-0.029v-0.021h-0.029h-0.029v-0.028h-0.029h-0.029h-0.029h-0.029H84h-0.03l-0.029,0.028h-0.029l-0.029,0.021h-0.029v0.029h-0.029
		v0.029h-0.029v0.021v0.029h-0.029v0.029v0.021v0.029v0.029v19.189c0,0.194,0.096,0.29,0.29,0.29c0.193,0,0.29-0.096,0.29-0.29
		v-17.8L92.09,526.8l0.029,0.029c0,0.021,0.01,0.029,0.029,0.029v0.021h0.029v0.029h0.029c0,0.021,0.009,0.027,0.029,0.027
		c0.019,0,0.029,0.012,0.029,0.022h0.029h0.029h0.029h0.058c0.019,0,0.039-0.009,0.058-0.022h0.029l0.029-0.027h0.029v-0.029h0.029
		v-0.021c0.019,0,0.029-0.018,0.029-0.029V526.8h0.029v-0.021v-0.029v-0.029v-0.021L92.642,507.492L92.642,507.492z"/>
	<path fill="#CFCBC2" d="M105.581,524.921c0.483,0,0.894,0.17,1.232,0.508s0.508,0.749,0.508,1.232c0,0.479-0.169,0.895-0.508,1.229
		c-0.339,0.345-0.75,0.515-1.232,0.515h-7.105c-0.483,0-0.895-0.17-1.232-0.515c-0.338-0.338-0.507-0.749-0.507-1.229v-19.198
		c0-0.479,0.169-0.894,0.507-1.229c0.338-0.346,0.749-0.516,1.232-0.516h7.105c0.483,0,0.894,0.17,1.232,0.516
		c0.338,0.339,0.508,0.749,0.508,1.229c0,0.503-0.169,0.919-0.508,1.247c-0.338,0.329-0.75,0.493-1.232,0.493h-5.365v7.308h3.712
		c0.483,0,0.894,0.17,1.232,0.509c0.338,0.345,0.507,0.748,0.507,1.231s-0.169,0.896-0.507,1.232
		c-0.338,0.339-0.75,0.508-1.232,0.508h-3.712v4.93H105.581z M105.581,526.951c0.193,0,0.29-0.104,0.29-0.29
		c0-0.193-0.097-0.29-0.29-0.29h-6.815v-7.83h5.162c0.193,0,0.29-0.097,0.29-0.29s-0.097-0.29-0.29-0.29h-5.162v-10.208h6.815
		c0.193,0,0.29-0.097,0.29-0.29s-0.097-0.29-0.29-0.29h-7.105c-0.193,0-0.29,0.097-0.29,0.29v19.198c0,0.193,0.097,0.29,0.29,0.29
		H105.581L105.581,526.951z"/>
</g>
<g>
	<g>
		<g>
			<path fill="#FFFFFF" d="M275.945,338.518l-1.054,2.924l31.518,4.904c3.816-1.38,7.688-3.059,11.281-5.082L275.945,338.518z"/>
			<path fill="#FFFFFF" d="M273.583,345.061l21.938,4.525l-0.011,0.048c2.92-0.728,6.127-1.637,9.408-2.764l-30.233-4.708
				l0.043-0.264L273.583,345.061z"/>
		</g>
		<g>
			<path fill="#FFFFFF" d="M219.487,349.634l-0.01-0.048l21.936-4.525l-1.143-3.156l0.041,0.263l-30.231,4.708
				C213.359,347.997,216.566,348.906,219.487,349.634z"/>
			<path fill="#FFFFFF" d="M197.307,341.264c3.59,2.023,7.461,3.702,11.279,5.082l31.515-4.904l-1.052-2.924L197.307,341.264z"/>
		</g>
		<g>
			<path fill="#FFFFFF" d="M272.757,333.662c-2.426-6.051-8.343-10.321-15.26-10.321c-6.914,0-12.83,4.271-15.258,10.321
				l-54.742,0.203c2.443,2.564,5.41,4.794,8.647,6.724l43.42-2.854l1.723,4.771c0.183,1.095,0.474,2.154,0.86,3.165l-21.062,4.346
				c6.702,1.574,11.525,2.139,11.525,2.139c1.369-0.532,5.886-2.182,10.771-3.942c2.873,4.798,8.119,8.013,14.114,8.013
				c5.998,0,11.246-3.215,14.118-8.013c4.886,1.771,9.399,3.41,10.771,3.942c0,0,4.824-0.562,11.524-2.139l-21.062-4.346
				c0.39-1.011,0.681-2.064,0.86-3.165l1.724-4.771l43.416,2.854c3.238-1.93,6.209-4.155,8.646-6.724L272.757,333.662z"/>
		</g>
	</g>
</g>
<g>
	<path fill="#24282C" d="M262.623,341.18h-3.703v3.793c0,0.52-0.395,0.941-0.909,0.941h-0.972c-0.547,0-0.94-0.426-0.94-0.941
		v-3.793h-3.704c-0.516,0-0.939-0.395-0.939-0.912v-1c0-0.547,0.425-0.938,0.939-0.938h3.704v-3.734c0-0.516,0.394-0.938,0.94-0.938
		h0.972c0.517,0,0.909,0.426,0.909,0.938v3.734h3.703c0.517,0,0.91,0.425,0.91,0.938v1
		C263.533,340.785,263.11,341.18,262.623,341.18z"/>
</g>
<g>
	<g>
		<path fill="#CCCCCC" d="M275.945,394.649l-1.054,2.92l31.518,4.909c3.816-1.38,7.688-3.062,11.281-5.082L275.945,394.649z"/>
		<path fill="#CCCCCC" d="M273.583,401.193l21.938,4.525l-0.011,0.048c2.92-0.729,6.127-1.642,9.408-2.769l-30.233-4.708
			l0.043-0.263L273.583,401.193z"/>
	</g>
	<g>
		<path fill="#CCCCCC" d="M219.487,405.767l-0.01-0.048l21.936-4.525l-1.143-3.161l0.041,0.263l-30.231,4.708
			C213.359,404.13,216.566,405.039,219.487,405.767z"/>
		<path fill="#CCCCCC" d="M197.307,397.396c3.59,2.021,7.461,3.702,11.279,5.082l31.515-4.909l-1.052-2.92L197.307,397.396z"/>
	</g>
	<g>
		<path fill="#CCCCCC" d="M272.757,389.796c-2.426-6.051-8.343-10.318-15.26-10.318c-6.914,0-12.83,4.271-15.258,10.318
			l-54.742,0.203c2.443,2.567,5.41,4.793,8.647,6.728l43.42-2.854l1.723,4.774c0.183,1.094,0.474,2.149,0.86,3.165l-21.062,4.346
			c6.702,1.574,11.525,2.135,11.525,2.135c1.369-0.529,5.886-2.178,10.771-3.938c2.873,4.798,8.119,8.012,14.114,8.012
			c5.998,0,11.246-3.214,14.118-8.012c4.886,1.766,9.399,3.409,10.771,3.938c0,0,4.824-0.561,11.524-2.135l-21.062-4.346
			c0.39-1.016,0.681-2.069,0.86-3.165l1.724-4.774l43.416,2.854c3.238-1.935,6.209-4.155,8.646-6.728L272.757,389.796z"/>
	</g>
</g>
<g>
	<path fill="#231F20" d="M262.623,397.312h-3.703v3.794c0,0.516-0.395,0.938-0.909,0.938h-0.972c-0.547,0-0.94-0.426-0.94-0.938
		v-3.794h-3.704c-0.516,0-0.939-0.396-0.939-0.912v-1c0-0.546,0.425-0.939,0.939-0.939h3.704v-3.73c0-0.52,0.394-0.941,0.94-0.941
		h0.972c0.517,0,0.909,0.426,0.909,0.941v3.73h3.703c0.517,0,0.91,0.428,0.91,0.939v1
		C263.533,396.918,263.11,397.312,262.623,397.312z"/>
</g>
<g>
	<g>
		<g>
			<path fill="#FFFFFF" d="M448.618,338.518l-1.058,2.924l31.521,4.904c3.812-1.38,7.688-3.059,11.281-5.082L448.618,338.518z"/>
			<path fill="#FFFFFF" d="M446.256,345.061l21.938,4.525l-0.011,0.048c2.92-0.728,6.127-1.637,9.408-2.764l-30.233-4.708
				l0.043-0.264L446.256,345.061z"/>
		</g>
		<g>
			<path fill="#FFFFFF" d="M392.16,349.634l-0.01-0.048l21.936-4.525l-1.146-3.156l0.041,0.263l-30.229,4.708
				C386.031,347.997,389.238,348.906,392.16,349.634z"/>
			<path fill="#FFFFFF" d="M369.981,341.264c3.59,2.023,7.461,3.702,11.279,5.082l31.515-4.904l-1.052-2.924L369.981,341.264z"/>
		</g>
		<g>
			<path fill="#FFFFFF" d="M445.43,333.662c-2.426-6.051-8.343-10.321-15.26-10.321c-6.914,0-12.83,4.271-15.258,10.321
				l-54.742,0.203c2.443,2.564,5.41,4.794,8.646,6.724l43.417-2.854l1.727,4.771c0.183,1.095,0.474,2.154,0.856,3.165l-21.062,4.346
				c6.702,1.574,11.524,2.139,11.524,2.139c1.366-0.532,5.887-2.182,10.771-3.942c2.873,4.798,8.119,8.013,14.114,8.013
				c5.998,0,11.246-3.215,14.118-8.013c4.885,1.771,9.396,3.41,10.771,3.942c0,0,4.824-0.562,11.524-2.139l-21.062-4.346
				c0.394-1.011,0.685-2.064,0.861-3.165l1.723-4.771l43.417,2.854c3.238-1.93,6.208-4.155,8.646-6.724L445.43,333.662z"/>
		</g>
	</g>
</g>
<g>
	<g>
		<g>
			<path fill="#FFFFFF" d="M275.945,450.775l-1.054,2.92l31.518,4.904c3.816-1.38,7.688-3.059,11.281-5.077L275.945,450.775z"/>
			<path fill="#FFFFFF" d="M273.583,457.319l21.938,4.521l-0.011,0.048c2.92-0.728,6.127-1.637,9.408-2.764l-30.233-4.708
				l0.043-0.263L273.583,457.319z"/>
		</g>
		<g>
			<path fill="#FFFFFF" d="M219.487,461.893l-0.01-0.048l21.936-4.521l-1.143-3.161l0.041,0.263l-30.231,4.708
				C213.359,460.256,216.566,461.165,219.487,461.893z"/>
			<path fill="#FFFFFF" d="M197.307,453.522c3.59,2.021,7.461,3.697,11.279,5.077l31.515-4.904l-1.052-2.92L197.307,453.522z"/>
		</g>
		<g>
			<path fill="#FFFFFF" d="M272.757,445.921c-2.426-6.05-8.343-10.321-15.26-10.321c-6.914,0-12.83,4.271-15.258,10.321
				l-54.742,0.203c2.443,2.568,5.41,4.794,8.647,6.724l43.42-2.854l1.723,4.771c0.183,1.099,0.474,2.154,0.86,3.165l-21.062,4.351
				c6.702,1.569,11.525,2.135,11.525,2.135c1.369-0.533,5.886-2.178,10.771-3.943c2.873,4.798,8.119,8.017,14.114,8.017
				c5.998,0,11.246-3.219,14.118-8.017c4.886,1.771,9.399,3.41,10.771,3.943c0,0,4.824-0.562,11.524-2.135l-21.062-4.351
				c0.39-1.011,0.681-2.064,0.86-3.165l1.724-4.771l43.416,2.854c3.238-1.93,6.209-4.15,8.646-6.724L272.757,445.921z"/>
		</g>
	</g>
</g>
<g>
	<path fill="#24282C" d="M262.624,453.438h-10.229c-0.516,0-0.939-0.394-0.939-0.907v-1c0-0.546,0.425-0.94,0.939-0.94h10.229
		c0.517,0,0.91,0.425,0.91,0.94v1C263.534,453.044,263.111,453.438,262.624,453.438z"/>
</g>
<g>
	<g>
		<path fill="#CCCCCC" d="M275.945,506.908l-1.054,2.92l31.518,4.909c3.816-1.38,7.688-3.059,11.281-5.082L275.945,506.908z"/>
		<path fill="#CCCCCC" d="M273.583,513.452l21.938,4.525l-0.011,0.048c2.92-0.729,6.127-1.637,9.408-2.764l-30.233-4.708
			l0.043-0.268L273.583,513.452z"/>
	</g>
	<g>
		<path fill="#CCCCCC" d="M219.487,518.025l-0.01-0.048l21.936-4.525l-1.143-3.161l0.041,0.268l-30.231,4.708
			C213.359,516.389,216.566,517.298,219.487,518.025z"/>
		<path fill="#CCCCCC" d="M197.307,509.655c3.59,2.023,7.461,3.702,11.279,5.082l31.515-4.909l-1.052-2.92L197.307,509.655z"/>
	</g>
	<g>
		<path fill="#CCCCCC" d="M272.757,502.054c-2.426-6.055-8.343-10.321-15.26-10.321c-6.914,0-12.83,4.271-15.258,10.321
			l-54.742,0.203c2.443,2.563,5.41,4.794,8.647,6.724l43.42-2.854l1.723,4.774c0.183,1.094,0.474,2.154,0.86,3.165l-21.062,4.346
			c6.702,1.574,11.525,2.135,11.525,2.135c1.369-0.528,5.886-2.178,10.771-3.938c2.873,4.798,8.119,8.012,14.114,8.012
			c5.998,0,11.246-3.214,14.118-8.012c4.886,1.766,9.399,3.41,10.771,3.938c0,0,4.824-0.561,11.524-2.135l-21.062-4.346
			c0.39-1.011,0.681-2.069,0.86-3.165l1.724-4.774l43.416,2.854c3.238-1.93,6.209-4.155,8.646-6.729L272.757,502.054z"/>
	</g>
</g>
<g>
	<path fill="#231F20" d="M262.624,509.57h-10.229c-0.516,0-0.939-0.394-0.939-0.912v-1c0-0.546,0.425-0.938,0.939-0.938h10.229
		c0.517,0,0.91,0.425,0.91,0.938v1C263.534,509.177,263.111,509.57,262.624,509.57z"/>
</g>
<g>
	<g>
		<g>
			<path fill="#FFFFFF" d="M713.32,32.445l-1.978,5.475l59.072,9.197c7.152-2.586,14.408-5.732,21.144-9.525L713.32,32.445z"/>
			<path fill="#FFFFFF" d="M708.893,44.708l41.118,8.482l-0.02,0.089c5.473-1.363,11.48-3.067,17.633-5.18l-56.665-8.824l0.08-0.494
				L708.893,44.708z"/>
		</g>
		<g>
			<path fill="#FFFFFF" d="M607.503,53.28l-0.019-0.089l41.11-8.482l-2.142-5.921l0.077,0.492l-56.662,8.824
				C596.018,50.212,602.028,51.916,607.503,53.28z"/>
			<path fill="#FFFFFF" d="M565.933,37.592c6.729,3.792,13.983,6.938,21.143,9.525l59.064-9.197l-1.972-5.475L565.933,37.592z"/>
		</g>
		<g>
			<path fill="#FFFFFF" d="M707.344,23.345C702.798,12.004,691.708,4,678.743,4c-12.959,0-24.047,8.006-28.597,19.345
				l-102.604,0.381c4.579,4.812,10.14,8.985,16.207,12.602l81.381-5.348l3.229,8.947c0.343,2.052,0.888,4.038,1.61,5.932
				l-39.478,8.145c12.562,2.951,21.602,4.003,21.602,4.003c2.566-0.998,11.032-4.083,20.188-7.389
				c5.386,8.993,15.218,15.018,26.452,15.018c11.239,0,21.078-6.025,26.462-15.018c9.154,3.313,17.616,6.392,20.187,7.389
				c0,0,9.042-1.052,21.603-4.003l-39.476-8.145c0.73-1.895,1.275-3.875,1.612-5.932l3.229-8.947l81.373,5.348
				c6.069-3.617,11.641-7.788,16.206-12.602L707.344,23.345z"/>
		</g>
	</g>
</g>
<g>
	<path fill="#24282C" d="M689.242,37.434h-6.94v7.109c0,0.968-0.739,1.764-1.704,1.764h-1.818c-1.025,0-1.766-0.798-1.766-1.764
		v-7.109h-6.939c-0.967,0-1.764-0.739-1.764-1.709v-1.874c0-1.025,0.801-1.761,1.764-1.761h6.939v-7
		c0-0.966,0.737-1.761,1.766-1.761h1.818c0.971,0,1.704,0.798,1.704,1.761v7h6.94c0.968,0,1.706,0.796,1.706,1.761v1.874
		C690.948,36.695,690.153,37.434,689.242,37.434z"/>
</g>
<g>
	<g>
		<path fill="#CCCCCC" d="M713.32,137.441l-1.978,5.473l59.072,9.201c7.152-2.586,14.408-5.736,21.144-9.525L713.32,137.441z"/>
		<path fill="#CCCCCC" d="M708.893,149.707l41.118,8.482l-0.02,0.089c5.473-1.367,11.48-3.071,17.633-5.183l-56.665-8.824
			l0.08-0.492L708.893,149.707z"/>
	</g>
	<g>
		<path fill="#CCCCCC" d="M607.503,158.278l-0.019-0.089l41.11-8.482l-2.142-5.925l0.077,0.492l-56.662,8.824
			C596.018,155.21,602.028,156.915,607.503,158.278z"/>
		<path fill="#CCCCCC" d="M565.933,142.59c6.729,3.789,13.983,6.938,21.143,9.525l59.064-9.201l-1.972-5.473L565.933,142.59z"/>
	</g>
	<g>
		<path fill="#CCCCCC" d="M707.344,128.345C702.798,117.004,691.708,109,678.743,109c-12.959,0-24.047,8.004-28.597,19.345
			l-102.604,0.381c4.579,4.812,10.14,8.983,16.207,12.604l81.381-5.35l3.229,8.949c0.343,2.05,0.888,4.034,1.61,5.932l-39.478,8.145
			c12.562,2.95,21.602,4.001,21.602,4.001c2.566-0.998,11.032-4.082,20.188-7.387c5.386,8.992,15.218,15.016,26.452,15.016
			c11.239,0,21.078-6.024,26.462-15.016c9.154,3.309,17.616,6.39,20.187,7.387c0,0,9.042-1.051,21.603-4.001l-39.478-8.145
			c0.73-1.898,1.275-3.878,1.612-5.932l3.229-8.949l81.373,5.35c6.069-3.62,11.641-7.788,16.206-12.604L707.344,128.345z"/>
	</g>
</g>
<g>
	<path fill="#231F20" d="M689.242,142.431h-6.94v7.111c0,0.966-0.739,1.761-1.704,1.761h-1.818c-1.025,0-1.766-0.798-1.766-1.761
		v-7.111h-6.939c-0.967,0-1.764-0.741-1.764-1.709v-1.875c0-1.023,0.801-1.761,1.764-1.761h6.939v-6.998
		c0-0.968,0.737-1.764,1.766-1.764h1.818c0.971,0,1.704,0.798,1.704,1.764v6.998h6.94c0.968,0,1.706,0.796,1.706,1.761v1.875
		C690.948,141.693,690.153,142.431,689.242,142.431z"/>
</g>
<g>
	<g>
		<g>
			<path fill="#FFFFFF" d="M713.32,243.444l-1.978,5.473l59.072,9.197c7.152-2.586,14.408-5.732,21.144-9.521L713.32,243.444z"/>
			<path fill="#FFFFFF" d="M708.893,255.709l41.118,8.479l-0.02,0.09c5.473-1.364,11.48-3.068,17.633-5.181l-56.665-8.823
				l0.08-0.493L708.893,255.709z"/>
		</g>
		<g>
			<path fill="#FFFFFF" d="M607.503,264.28l-0.019-0.089l41.11-8.479l-2.142-5.925l0.077,0.492l-56.662,8.824
				C596.018,261.213,602.028,262.917,607.503,264.28z"/>
			<path fill="#FFFFFF" d="M565.933,248.592c6.729,3.789,13.983,6.936,21.143,9.521l59.064-9.197l-1.972-5.473L565.933,248.592z"/>
		</g>
		<g>
			<path fill="#FFFFFF" d="M707.344,234.345C702.798,223.006,691.708,215,678.743,215c-12.959,0-24.047,8.006-28.597,19.345
				l-102.604,0.38c4.579,4.814,10.14,8.985,16.207,12.602l81.381-5.348l3.229,8.945c0.343,2.054,0.888,4.037,1.61,5.932
				l-39.478,8.149c12.562,2.946,21.602,4.001,21.602,4.001c2.566-1,11.032-4.082,20.188-7.392
				c5.386,8.993,15.218,15.021,26.452,15.021c11.239,0,21.078-6.027,26.462-15.021c9.154,3.313,17.616,6.392,20.187,7.392
				c0,0,9.042-1.055,21.603-4.001l-39.478-8.149c0.73-1.895,1.275-3.874,1.612-5.932l3.229-8.945l81.373,5.348
				c6.069-3.617,11.641-7.785,16.206-12.602L707.344,234.345z"/>
		</g>
	</g>
</g>
<g>
	<path fill="#24282C" d="M689.242,248.433h-19.173c-0.97,0-1.759-0.738-1.759-1.706v-1.874c0-1.023,0.796-1.763,1.759-1.763h19.173
		c0.968,0,1.706,0.796,1.706,1.763v1.874C690.948,247.695,690.153,248.433,689.242,248.433z"/>
</g>
<g>
	<g>
		<g>
			<path fill="#CCCCCC" d="M713.32,348.443l-1.978,5.473l59.072,9.201c7.152-2.587,14.408-5.732,21.144-9.525L713.32,348.443z"/>
			<path fill="#CCCCCC" d="M708.893,360.708l41.118,8.482l-0.02,0.089c5.473-1.367,11.48-3.067,17.633-5.18l-56.665-8.824
				l0.08-0.495L708.893,360.708z"/>
		</g>
		<g>
			<path fill="#CCCCCC" d="M607.503,369.279l-0.019-0.089l41.11-8.482l-2.142-5.925l0.077,0.496l-56.662,8.824
				C596.018,366.212,602.028,367.916,607.503,369.279z"/>
			<path fill="#CCCCCC" d="M565.933,353.592c6.729,3.793,13.983,6.938,21.143,9.525l59.064-9.201l-1.972-5.473L565.933,353.592z"/>
		</g>
		<g>
			<path fill="#CCCCCC" d="M707.344,339.345C702.798,328.002,691.708,320,678.743,320c-12.959,0-24.047,8.004-28.597,19.345
				l-102.604,0.384c4.579,4.81,10.14,8.981,16.207,12.602l81.381-5.35l3.229,8.945c0.343,2.053,0.888,4.037,1.61,5.935
				l-39.478,8.146c12.562,2.95,21.602,4.001,21.602,4.001c2.566-0.996,11.032-4.082,20.188-7.388
				c5.386,8.993,15.218,15.017,26.452,15.017c11.239,0,21.078-6.021,26.462-15.017c9.154,3.31,17.616,6.392,20.187,7.388
				c0,0,9.042-1.051,21.603-4.001l-39.478-8.146c0.73-1.896,1.275-3.878,1.612-5.935l3.229-8.945l81.373,5.35
				c6.069-3.617,11.641-7.788,16.206-12.604L707.344,339.345z"/>
		</g>
	</g>
	<g>
		<path fill="#24282C" d="M689.242,353.432h-19.173c-0.97,0-1.759-0.734-1.759-1.709v-1.875c0-1.021,0.796-1.759,1.759-1.759h19.173
			c0.968,0,1.706,0.796,1.706,1.759v1.875C690.948,352.695,690.153,353.432,689.242,353.432z"/>
	</g>
</g>
<g>
	<path fill="#24282C" d="M424.065,341.541c-0.194-0.194-0.194-0.514,0.001-0.708l1.248-1.251c0.191-0.194,0.514-0.194,0.708,0
		l2.025,2.025c0.194,0.19,0.517,0.189,0.707-0.005l5.563-5.57c0.191-0.195,0.512-0.195,0.707-0.002l1.244,1.23
		c0.19,0.193,0.191,0.516,0.001,0.706l-6.744,6.761c-0.194,0.194-0.578,0.355-0.854,0.355h-0.583c-0.271,0-0.654-0.161-0.853-0.355
		L424.065,341.541z"/>
</g>
<g>
	<g>
		<g>
			<path fill="#CCCCCC" d="M448.618,394.65l-1.058,2.92l31.521,4.908c3.812-1.38,7.688-3.062,11.281-5.082L448.618,394.65z"/>
			<path fill="#CCCCCC" d="M446.256,401.193l21.938,4.525l-0.011,0.048c2.92-0.729,6.127-1.641,9.408-2.768l-30.233-4.708
				l0.043-0.264L446.256,401.193z"/>
		</g>
		<g>
			<path fill="#CCCCCC" d="M392.16,405.767l-0.01-0.048l21.936-4.525l-1.146-3.16l0.041,0.263l-30.229,4.708
				C386.031,404.13,389.238,405.039,392.16,405.767z"/>
			<path fill="#CCCCCC" d="M369.981,397.396c3.59,2.021,7.461,3.702,11.279,5.082l31.515-4.908l-1.052-2.92L369.981,397.396z"/>
		</g>
		<g>
			<path fill="#CCCCCC" d="M445.43,389.795c-2.426-6.051-8.343-10.317-15.26-10.317c-6.914,0-12.83,4.271-15.258,10.317
				l-54.742,0.203c2.443,2.568,5.41,4.794,8.646,6.728l43.417-2.854l1.727,4.774c0.183,1.095,0.474,2.15,0.856,3.165l-21.062,4.346
				c6.702,1.574,11.524,2.135,11.524,2.135c1.366-0.528,5.887-2.178,10.771-3.938c2.873,4.798,8.119,8.013,14.114,8.013
				c5.998,0,11.246-3.215,14.118-8.013c4.885,1.767,9.396,3.41,10.771,3.938c0,0,4.824-0.561,11.524-2.135l-21.062-4.346
				c0.394-1.015,0.685-2.068,0.861-3.165l1.723-4.774l43.417,2.854c3.238-1.934,6.208-4.155,8.646-6.728L445.43,389.795z"/>
		</g>
	</g>
</g>
<g>
	<path fill="#24282C" d="M424.065,397.673c-0.194-0.193-0.194-0.517,0.001-0.707l1.248-1.255c0.191-0.19,0.514-0.19,0.708,0
		l2.025,2.025c0.194,0.194,0.517,0.193,0.707-0.001l5.563-5.574c0.191-0.191,0.512-0.191,0.707-0.002l1.244,1.234
		c0.19,0.189,0.191,0.512,0.001,0.706l-6.744,6.761c-0.194,0.194-0.578,0.355-0.854,0.355h-0.583c-0.271,0-0.654-0.161-0.853-0.355
		L424.065,397.673z"/>
</g>
<g>
	<g>
		<g>
			<path fill="#FFFFFF" d="M713.32,463.445l-1.979,5.475l59.074,9.197c7.15-2.586,14.408-5.732,21.144-9.525L713.32,463.445z"/>
			<path fill="#FFFFFF" d="M708.893,475.709l41.117,8.481l-0.021,0.09c5.473-1.364,11.48-3.067,17.634-5.183l-56.666-8.821
				l0.081-0.494L708.893,475.709z"/>
		</g>
		<g>
			<path fill="#FFFFFF" d="M607.503,484.28l-0.019-0.09l41.11-8.481l-2.144-5.922l0.077,0.492l-56.66,8.821
				C596.016,481.213,602.026,482.916,607.503,484.28z"/>
			<path fill="#FFFFFF" d="M565.933,468.592c6.729,3.793,13.983,6.939,21.143,9.525l59.064-9.197l-1.972-5.475L565.933,468.592z"/>
		</g>
		<g>
			<path fill="#FFFFFF" d="M707.344,454.345C702.798,443.004,691.708,435,678.743,435c-12.959,0-24.047,8.006-28.597,19.345
				l-102.604,0.381c4.579,4.812,10.14,8.985,16.206,12.604l81.38-5.351l3.23,8.946c0.343,2.052,0.888,4.038,1.608,5.936
				l-39.476,8.145c12.562,2.95,21.602,4.003,21.602,4.003c2.564-0.997,11.032-4.083,20.188-7.389
				c5.385,8.992,15.217,15.018,26.453,15.018c11.24,0,21.076-6.022,26.462-15.018c9.153,3.312,17.614,6.392,20.187,7.389
				c0,0,9.042-1.053,21.603-4.003l-39.479-8.145c0.732-1.896,1.277-3.875,1.614-5.936l3.229-8.946l81.375,5.351
				c6.069-3.616,11.639-7.788,16.206-12.604L707.344,454.345z"/>
		</g>
	</g>
</g>
<g>
	<path fill="#24282C" d="M669.521,469.112c-0.364-0.364-0.364-0.963,0.002-1.327l2.339-2.345c0.361-0.364,0.963-0.364,1.327,0
		l3.802,3.796c0.364,0.359,0.963,0.357,1.325-0.004l10.427-10.445c0.362-0.366,0.959-0.366,1.325-0.004l2.332,2.312
		c0.359,0.362,0.361,0.96,0.002,1.323l-12.644,12.671c-0.361,0.364-1.083,0.666-1.602,0.666h-1.093
		c-0.515,0-1.231-0.302-1.601-0.666L669.521,469.112z"/>
</g>
<g>
	<g>
		<g>
			<g>
				<path fill="#CCCCCC" d="M713.32,568.443l-1.979,5.476l59.074,9.199c7.15-2.589,14.408-5.734,21.144-9.524L713.32,568.443z"/>
				<path fill="#CCCCCC" d="M708.893,580.707l41.117,8.479l-0.021,0.09c5.473-1.362,11.48-3.066,17.634-5.182l-56.666-8.824
					l0.081-0.494L708.893,580.707z"/>
			</g>
			<g>
				<path fill="#CCCCCC" d="M607.503,589.279l-0.019-0.091l41.11-8.479l-2.144-5.923l0.077,0.49l-56.66,8.823
					C596.016,586.211,602.026,587.915,607.503,589.279z"/>
				<path fill="#CCCCCC" d="M565.933,573.591c6.729,3.79,13.983,6.938,21.143,9.524l59.064-9.199l-1.972-5.476L565.933,573.591z"/>
			</g>
			<g>
				<path fill="#CCCCCC" d="M707.344,559.343C702.798,548.002,691.708,540,678.743,540c-12.959,0-24.047,8.004-28.597,19.343
					l-102.604,0.381c4.579,4.813,10.14,8.985,16.206,12.604l81.38-5.353l3.23,8.948c0.343,2.052,0.888,4.036,1.608,5.933
					l-39.476,8.146c12.562,2.95,21.602,4.001,21.602,4.001c2.564-0.995,11.032-4.081,20.188-7.389
					c5.385,8.991,15.217,15.02,26.453,15.02c11.24,0,21.076-6.025,26.462-15.02c9.153,3.312,17.614,6.394,20.187,7.389
					c0,0,9.042-1.051,21.603-4.001l-39.479-8.146c0.732-1.896,1.277-3.877,1.614-5.933l3.229-8.948l81.375,5.353
					c6.069-3.618,11.639-7.788,16.206-12.604L707.344,559.343z"/>
			</g>
		</g>
	</g>
	<g>
		<path fill="#24282C" d="M669.521,574.108c-0.364-0.359-0.364-0.963,0.002-1.322l2.339-2.35c0.361-0.359,0.963-0.359,1.327,0
			l3.802,3.796c0.364,0.364,0.963,0.362,1.325-0.001l10.427-10.445c0.362-0.364,0.959-0.364,1.325-0.004l2.332,2.312
			c0.359,0.36,0.361,0.959,0.002,1.323l-12.644,12.671c-0.361,0.364-1.083,0.666-1.602,0.666h-1.093
			c-0.515,0-1.231-0.302-1.601-0.666L669.521,574.108z"/>
	</g>
</g>
</svg>
